<svg xmlns="http://www.w3.org/2000/svg" version="1.1" xmlns:xlink="http://www.w3.org/1999/xlink" xmlns:svgjs="http://svgjs.dev/svgjs" width="1575.2" height="589.6" preserveAspectRatio="none" viewBox="0 0 1575.2 589.6">
    <g mask="url(&quot;#SvgjsMask1123&quot;)" fill="none">
        <rect width="1575.2" height="589.6" x="0" y="0" fill="rgba(233, 233, 233, 1)"></rect>
        <path d="M0,602.348C112.638,598.096,207.833,531.313,306.901,477.547C414.061,419.389,573.153,393.537,602.708,275.248C633.631,151.486,478.354,58.743,442.101,-63.564C413.386,-160.44,457.898,-267.97,414.63,-359.279C364.103,-465.907,289.978,-570.867,180.664,-615.285C68.145,-661.005,-60.798,-637.847,-175.956,-599.253C-288.314,-561.597,-406.38,-504.843,-461.649,-400.021C-514.697,-299.411,-447.284,-179.045,-457.257,-65.744C-466.449,38.687,-541.967,134.431,-517.67,236.412C-491.711,345.37,-413.624,436.637,-322.161,501.292C-228.358,567.6,-114.791,606.681,0,602.348" fill="#d9d9d9"></path>
        <path d="M1575.2 1341.318C1714.501 1364.534 1865.743 1295.26 1962.732 1192.612 2054.276 1095.727 2030.67 943.1210000000001 2071.373 816.195 2106.051 708.054 2201.477 614.2810000000001 2184.183 502.04100000000005 2166.915 389.97400000000005 2059.322 320.05100000000004 1982.129 236.99400000000003 1907.775 156.99100000000004 1843.382 63.014999999999986 1740.943 25.129999999999995 1635.173-13.986999999999966 1515.882-12.156999999999925 1409.481 25.211000000000013 1305.867 61.60000000000002 1233.856 148.58100000000002 1159.449 229.35000000000002 1082.778 312.577 996.245 392.535 969.743 502.548 942.0680000000001 617.431 956.787 742.2370000000001 1010.5440000000001 847.47 1063.202 950.553 1175.52 999.731 1262.651 1075.9360000000001 1367.655 1167.772 1437.6000000000001 1318.386 1575.2 1341.318" fill="#f9f9f9"></path>
    </g>
    <defs>
        <mask id="SvgjsMask1123">
            <rect width="1575.2" height="589.6" fill="#ffffff"></rect>
        </mask>
    </defs>
</svg>