<svg xmlns="http://www.w3.org/2000/svg" version="1.1" xmlns:xlink="http://www.w3.org/1999/xlink" xmlns:svgjs="http://svgjs.dev/svgjs" width="1440" height="560" preserveAspectRatio="none" viewBox="0 0 1440 560">
    <g mask="url(&quot;#SvgjsMask1093&quot;)" fill="none">
        <path d="M -322.9951428179493,273 C -265.4,275.4 -150.2,303.4 -34.995142817949294,285 C 80.2,266.6 137.8,175.6 253.0048571820507,181 C 368.2,186.4 425.8,302.6 541.0048571820507,312 C 656.2,321.4 713.8,215.6 829.0048571820507,228 C 944.2,240.4 1001.8,366.4 1117.0048571820507,374 C 1232.2,381.6 1340.41,271.2 1405.0048571820507,266 C 1469.6,260.8 1433,331.6 1440,348" stroke="rgba(57, 82, 104, 0.47)" stroke-width="2"></path>
        <path d="M -395.70515334328456,306 C -338.11,283.2 -222.91,181.6 -107.70515334328454,192 C 7.49,202.4 65.09,364.2 180.29484665671546,358 C 295.49,351.8 353.09,163.8 468.29484665671544,161 C 583.49,158.2 641.09,334.6 756.2948466567154,344 C 871.49,353.4 929.09,195.8 1044.2948466567154,208 C 1159.49,220.2 1253.15,394.6 1332.2948466567154,405 C 1411.44,415.4 1418.46,289 1440,260" stroke="rgba(57, 82, 104, 0.47)" stroke-width="2"></path>
    </g>
    <defs>
        <mask id="SvgjsMask1093">
            <rect width="1440" height="560" fill="#ffffff"></rect>
        </mask>
    </defs>
</svg>