<svg xmlns="http://www.w3.org/2000/svg" version="1.1" xmlns:xlink="http://www.w3.org/1999/xlink" xmlns:svgjs="http://svgjs.dev/svgjs" width="1575.2" height="589.6" preserveAspectRatio="none" viewBox="0 0 1575.2 589.6">
    <g mask="url(&quot;#SvgjsMask1017&quot;)" fill="none">
        <rect width="1575.2" height="589.6" x="0" y="0" fill="rgba(242, 242, 242, 1)"></rect>
        <path d="M0,558.265C102.133,569.637,159.793,438.666,247.567,385.222C338.385,329.925,484.046,337.834,523.915,239.264C564.186,139.7,468.126,38.159,428.285,-61.578C397.896,-137.653,368.714,-211.23,318.2,-275.722C265.434,-343.088,207.292,-405.927,129.927,-442.492C43.76,-483.217,-51.725,-512.964,-145.279,-494.775C-242.772,-475.821,-341.971,-425.815,-393.273,-340.773C-442.913,-258.486,-396.287,-154.052,-408.338,-58.71C-420.1,34.343,-504.609,127.384,-463.077,211.48C-421.341,295.988,-289.945,277.276,-214.503,333.773C-129.946,397.095,-104.99,546.575,0,558.265" fill="#d3d3d3"></path>
        <path d="M1575.2 1103.0349999999999C1668.4740000000002 1084.5 1719.998 988.648 1790.983 925.365 1849.689 873.029 1916.769 831.665 1956.036 763.522 1997.977 690.739 2018.49 609.3910000000001 2021.4370000000001 525.441 2024.846 428.34400000000005 2028.229 324.59700000000004 1974.2820000000002 243.793 1917.9540000000002 159.423 1822.788 106.28900000000004 1724.593 80.81600000000003 1628.0800000000002 55.778999999999996 1516.765 50.099000000000046 1432.385 103.21800000000002 1351.631 154.055 1360.3210000000001 277.144 1297.9740000000002 349.38200000000006 1235.828 421.38800000000003 1110.345 429.452 1074.709 517.64 1038.43 607.421 1077.3700000000001 710.51 1116.202 799.217 1155.46 888.897 1214.601 969.646 1296.234 1023.6800000000001 1378.517 1078.145 1478.416 1122.267 1575.2 1103.0349999999999" fill="#ffffff"></path>
    </g>
    <defs>
        <mask id="SvgjsMask1017">
            <rect width="1575.2" height="589.6" fill="#ffffff"></rect>
        </mask>
    </defs>
</svg>