<svg xmlns="http://www.w3.org/2000/svg" version="1.1" xmlns:xlink="http://www.w3.org/1999/xlink" xmlns:svgjs="http://svgjs.dev/svgjs" width="900" height="300" preserveAspectRatio="none" viewBox="0 0 900 300">
    <g mask="url(&quot;#SvgjsMask1087&quot;)" fill="none">
        <rect width="900" height="300" x="0" y="0" fill="rgba(202, 202, 202, 1)"></rect>
        <path d="M0,396.217C72.742,388.249,129.491,336.837,190.678,296.7C251.253,256.964,318.703,224.672,356.1,162.626C395.801,96.757,427.288,15.307,404.568,-58.168C382.22,-130.441,295.373,-156.201,241.189,-208.992C192.824,-256.113,164.151,-322.5,103.273,-351.714C37.059,-383.489,-40.128,-397.3,-110.99,-377.998C-182.419,-358.542,-236.195,-302.617,-284.123,-246.194C-331.672,-190.216,-379.364,-128.589,-385.048,-55.362C-390.607,16.249,-342.013,77.274,-314.377,143.571C-285.631,212.53,-277.794,294.838,-219.558,341.639C-159.56,389.856,-76.514,404.599,0,396.217" fill="#a2a2a2"></path>
        <path d="M900 564.8679999999999C950.7909999999999 578.056 1013.908 572.3199999999999 1051.445 535.652 1089.143 498.826 1069.787 434.906 1084.766 384.38 1096.993 343.138 1133.002 309.741 1131.159 266.764 1129.251 222.261 1102.664 183.296 1074.66 148.656 1045.906 113.089 1010.83 83.779 968.747 65.869 922.91 46.361999999999995 871.969 27.721000000000004 824.273 42.096000000000004 776.6610000000001 56.446 750.181 104.38399999999999 717.269 141.663 684.0260000000001 179.316 639.268 211.787 630.756 261.289 622.1859999999999 311.131 641.086 364.149 672.152 404.055 700.543 440.525 754.112 441.6 791.872 468.251 832.178 496.699 852.25 552.469 900 564.8679999999999" fill="#f2f2f2"></path>
    </g>
    <defs>
        <mask id="SvgjsMask1087">
            <rect width="900" height="300" fill="#ffffff"></rect>
        </mask>
    </defs>
</svg>