<svg xmlns="http://www.w3.org/2000/svg" version="1.1" xmlns:xlink="http://www.w3.org/1999/xlink" xmlns:svgjs="http://svgjs.dev/svgjs" width="1054" height="404" preserveAspectRatio="none" viewBox="0 0 1054 404">
    <g mask="url(&quot;#SvgjsMask1014&quot;)" fill="none">
        <path d="M178.05 454.64C315.69 452.69 439.82 288.99 703.14 288.93 966.47 288.87 1095.26 373.5 1228.24 373.77" stroke="rgba(54, 78, 99, 0.52)" stroke-width="2"></path>
        <path d="M393.01 405.94C521.82 392.45 605.73 113.93 820.82 113.81 1035.92 113.69 1130.47 310.82 1248.64 315.81" stroke="rgba(54, 78, 99, 0.52)" stroke-width="2"></path>
        <path d="M365.48 419.42C490.58 407.99 557.59 155.3 787.95 147.37 1018.31 139.44 1102.06 51.03 1210.42 50.41" stroke="rgba(54, 78, 99, 0.52)" stroke-width="2"></path>
        <path d="M651.83 428.38C729.89 395.71 694.26 155.26 848.96 153.21 1003.65 151.16 1141.95 245.5 1243.21 246.13" stroke="rgba(54, 78, 99, 0.52)" stroke-width="2"></path>
        <path d="M436.36 416.8C501.74 415.53 486.88 333.39 682.96 329.6 879.03 325.81 1045.45 158.39 1176.15 155.88" stroke="rgba(54, 78, 99, 0.52)" stroke-width="2"></path>
    </g>
    <defs>
        <mask id="SvgjsMask1014">
            <rect width="1054" height="404" fill="#ffffff"></rect>
        </mask>
    </defs>
</svg>