<svg xmlns="http://www.w3.org/2000/svg" version="1.1" xmlns:xlink="http://www.w3.org/1999/xlink" xmlns:svgjs="http://svgjs.dev/svgjs" width="1440" height="560" preserveAspectRatio="none" viewBox="0 0 1440 560">
    <g mask="url(&quot;#SvgjsMask1010&quot;)" fill="none">
        <rect width="1440" height="560" x="0" y="0" fill="rgba(54, 78, 98, 1)"></rect>
        <path d="M-39.33 349.5L-39.33 349.5" stroke="rgba(97, 97, 97, 1)" stroke-width="1.5"></path>
        <path d="M-39.33 349.5L88.55 395.58" stroke="rgba(97, 97, 97, 1)" stroke-width="1.5"></path>
        <path d="M-39.33 349.5L37.6 511.68" stroke="rgba(97, 97, 97, 1)" stroke-width="1.5"></path>
        <path d="M-39.33 349.5L-98.7 552.17" stroke="rgba(97, 97, 97, 1)" stroke-width="1.5"></path>
        <path d="M-39.33 349.5L202.28 369.54" stroke="rgba(97, 97, 97, 1)" stroke-width="1.5"></path>
        <path d="M-39.33 349.5L241.14 544.78" stroke="rgba(97, 97, 97, 1)" stroke-width="1.5"></path>
        <path d="M-98.7 552.17L-98.7 552.17" stroke="rgba(97, 97, 97, 1)" stroke-width="1.5"></path>
        <path d="M-98.7 552.17L37.6 511.68" stroke="rgba(97, 97, 97, 1)" stroke-width="1.5"></path>
        <path d="M-98.7 552.17L-84.06 693.93" stroke="rgba(97, 97, 97, 1)" stroke-width="1.5"></path>
        <path d="M-98.7 552.17L100.54 684.82" stroke="rgba(97, 97, 97, 1)" stroke-width="1.5"></path>
        <path d="M-84.06 693.93L-84.06 693.93" stroke="rgba(97, 97, 97, 1)" stroke-width="1.5"></path>
        <path d="M-84.06 693.93L100.54 684.82" stroke="rgba(97, 97, 97, 1)" stroke-width="1.5"></path>
        <path d="M-84.06 693.93L37.6 511.68" stroke="rgba(97, 97, 97, 1)" stroke-width="1.5"></path>
        <path d="M-84.06 693.93L209.41 647.74" stroke="rgba(97, 97, 97, 1)" stroke-width="1.5"></path>
        <path d="M-84.06 693.93L88.55 395.58" stroke="rgba(97, 97, 97, 1)" stroke-width="1.5"></path>
        <path d="M88.55 395.58L88.55 395.58" stroke="rgba(97, 97, 97, 1)" stroke-width="1.5"></path>
        <path d="M88.55 395.58L202.28 369.54" stroke="rgba(97, 97, 97, 1)" stroke-width="1.5"></path>
        <path d="M88.55 395.58L37.6 511.68" stroke="rgba(97, 97, 97, 1)" stroke-width="1.5"></path>
        <path d="M88.55 395.58L241.14 544.78" stroke="rgba(97, 97, 97, 1)" stroke-width="1.5"></path>
        <path d="M37.6 511.68L37.6 511.68" stroke="rgba(97, 97, 97, 1)" stroke-width="1.5"></path>
        <path d="M37.6 511.68L100.54 684.82" stroke="rgba(97, 97, 97, 1)" stroke-width="1.5"></path>
        <path d="M100.54 684.82L100.54 684.82" stroke="rgba(97, 97, 97, 1)" stroke-width="1.5"></path>
        <path d="M100.54 684.82L209.41 647.74" stroke="rgba(97, 97, 97, 1)" stroke-width="1.5"></path>
        <path d="M202.28 369.54L202.28 369.54" stroke="rgba(97, 97, 97, 1)" stroke-width="1.5"></path>
        <path d="M202.28 369.54L363.29 350.02" stroke="rgba(97, 97, 97, 1)" stroke-width="1.5"></path>
        <path d="M202.28 369.54L241.14 544.78" stroke="rgba(97, 97, 97, 1)" stroke-width="1.5"></path>
        <path d="M202.28 369.54L37.6 511.68" stroke="rgba(97, 97, 97, 1)" stroke-width="1.5"></path>
        <path d="M241.14 544.78L241.14 544.78" stroke="rgba(97, 97, 97, 1)" stroke-width="1.5"></path>
        <path d="M241.14 544.78L209.41 647.74" stroke="rgba(97, 97, 97, 1)" stroke-width="1.5"></path>
        <path d="M241.14 544.78L392.07 521.52" stroke="rgba(97, 97, 97, 1)" stroke-width="1.5"></path>
        <path d="M241.14 544.78L100.54 684.82" stroke="rgba(97, 97, 97, 1)" stroke-width="1.5"></path>
        <path d="M241.14 544.78L37.6 511.68" stroke="rgba(97, 97, 97, 1)" stroke-width="1.5"></path>
        <path d="M209.41 647.74L209.41 647.74" stroke="rgba(97, 97, 97, 1)" stroke-width="1.5"></path>
        <path d="M209.41 647.74L410.48 708.54" stroke="rgba(97, 97, 97, 1)" stroke-width="1.5"></path>
        <path d="M209.41 647.74L37.6 511.68" stroke="rgba(97, 97, 97, 1)" stroke-width="1.5"></path>
        <path d="M209.41 647.74L392.07 521.52" stroke="rgba(97, 97, 97, 1)" stroke-width="1.5"></path>
        <path d="M363.29 350.02L363.29 350.02" stroke="rgba(97, 97, 97, 1)" stroke-width="1.5"></path>
        <path d="M363.29 350.02L513.2 353.78" stroke="rgba(97, 97, 97, 1)" stroke-width="1.5"></path>
        <path d="M392.07 521.52L392.07 521.52" stroke="rgba(97, 97, 97, 1)" stroke-width="1.5"></path>
        <path d="M392.07 521.52L547.9 488.51" stroke="rgba(97, 97, 97, 1)" stroke-width="1.5"></path>
        <path d="M392.07 521.52L363.29 350.02" stroke="rgba(97, 97, 97, 1)" stroke-width="1.5"></path>
        <path d="M392.07 521.52L410.48 708.54" stroke="rgba(97, 97, 97, 1)" stroke-width="1.5"></path>
        <path d="M392.07 521.52L513.2 353.78" stroke="rgba(97, 97, 97, 1)" stroke-width="1.5"></path>
        <path d="M410.48 708.54L410.48 708.54" stroke="rgba(97, 97, 97, 1)" stroke-width="1.5"></path>
        <path d="M410.48 708.54L541.37 679.25" stroke="rgba(97, 97, 97, 1)" stroke-width="1.5"></path>
        <path d="M410.48 708.54L241.14 544.78" stroke="rgba(97, 97, 97, 1)" stroke-width="1.5"></path>
        <path d="M410.48 708.54L547.9 488.51" stroke="rgba(97, 97, 97, 1)" stroke-width="1.5"></path>
        <path d="M410.48 708.54L684.39 665.23" stroke="rgba(97, 97, 97, 1)" stroke-width="1.5"></path>
        <path d="M513.2 353.78L513.2 353.78" stroke="rgba(97, 97, 97, 1)" stroke-width="1.5"></path>
        <path d="M513.2 353.78L547.9 488.51" stroke="rgba(97, 97, 97, 1)" stroke-width="1.5"></path>
        <path d="M513.2 353.78L655.46 345.19" stroke="rgba(97, 97, 97, 1)" stroke-width="1.5"></path>
        <path d="M513.2 353.78L684.85 544.02" stroke="rgba(97, 97, 97, 1)" stroke-width="1.5"></path>
        <path d="M513.2 353.78L202.28 369.54" stroke="rgba(97, 97, 97, 1)" stroke-width="1.5"></path>
        <path d="M547.9 488.51L547.9 488.51" stroke="rgba(97, 97, 97, 1)" stroke-width="1.5"></path>
        <path d="M547.9 488.51L684.85 544.02" stroke="rgba(97, 97, 97, 1)" stroke-width="1.5"></path>
        <path d="M547.9 488.51L655.46 345.19" stroke="rgba(97, 97, 97, 1)" stroke-width="1.5"></path>
        <path d="M541.37 679.25L541.37 679.25" stroke="rgba(97, 97, 97, 1)" stroke-width="1.5"></path>
        <path d="M541.37 679.25L684.39 665.23" stroke="rgba(97, 97, 97, 1)" stroke-width="1.5"></path>
        <path d="M655.46 345.19L655.46 345.19" stroke="rgba(97, 97, 97, 1)" stroke-width="1.5"></path>
        <path d="M655.46 345.19L684.85 544.02" stroke="rgba(97, 97, 97, 1)" stroke-width="1.5"></path>
        <path d="M684.85 544.02L684.85 544.02" stroke="rgba(97, 97, 97, 1)" stroke-width="1.5"></path>
        <path d="M684.85 544.02L684.39 665.23" stroke="rgba(97, 97, 97, 1)" stroke-width="1.5"></path>
        <path d="M684.85 544.02L833.81 524.86" stroke="rgba(97, 97, 97, 1)" stroke-width="1.5"></path>
        <path d="M684.85 544.02L813.37 640.49" stroke="rgba(97, 97, 97, 1)" stroke-width="1.5"></path>
        <path d="M684.85 544.02L541.37 679.25" stroke="rgba(97, 97, 97, 1)" stroke-width="1.5"></path>
        <path d="M684.39 665.23L684.39 665.23" stroke="rgba(97, 97, 97, 1)" stroke-width="1.5"></path>
        <path d="M684.39 665.23L813.37 640.49" stroke="rgba(97, 97, 97, 1)" stroke-width="1.5"></path>
        <path d="M684.39 665.23L833.81 524.86" stroke="rgba(97, 97, 97, 1)" stroke-width="1.5"></path>
        <path d="M684.39 665.23L547.9 488.51" stroke="rgba(97, 97, 97, 1)" stroke-width="1.5"></path>
        <path d="M855.67 239.28L855.67 239.28" stroke="rgba(97, 97, 97, 1)" stroke-width="1.5"></path>
        <path d="M855.67 239.28L987.26 212.38" stroke="rgba(97, 97, 97, 1)" stroke-width="1.5"></path>
        <path d="M855.67 239.28L948.57 107.57" stroke="rgba(97, 97, 97, 1)" stroke-width="1.5"></path>
        <path d="M833.81 524.86L833.81 524.86" stroke="rgba(97, 97, 97, 1)" stroke-width="1.5"></path>
        <path d="M833.81 524.86L813.37 640.49" stroke="rgba(97, 97, 97, 1)" stroke-width="1.5"></path>
        <path d="M833.81 524.86L965.5 548.15" stroke="rgba(97, 97, 97, 1)" stroke-width="1.5"></path>
        <path d="M813.37 640.49L813.37 640.49" stroke="rgba(97, 97, 97, 1)" stroke-width="1.5"></path>
        <path d="M813.37 640.49L965.5 548.15" stroke="rgba(97, 97, 97, 1)" stroke-width="1.5"></path>
        <path d="M813.37 640.49L541.37 679.25" stroke="rgba(97, 97, 97, 1)" stroke-width="1.5"></path>
        <path d="M813.37 640.49L1102.68 664.92" stroke="rgba(97, 97, 97, 1)" stroke-width="1.5"></path>
        <path d="M979.54 -80.98L979.54 -80.98" stroke="rgba(97, 97, 97, 1)" stroke-width="1.5"></path>
        <path d="M979.54 -80.98L1154.48 -49.75" stroke="rgba(97, 97, 97, 1)" stroke-width="1.5"></path>
        <path d="M948.57 107.57L948.57 107.57" stroke="rgba(97, 97, 97, 1)" stroke-width="1.5"></path>
        <path d="M948.57 107.57L987.26 212.38" stroke="rgba(97, 97, 97, 1)" stroke-width="1.5"></path>
        <path d="M948.57 107.57L1124.59 85.86" stroke="rgba(97, 97, 97, 1)" stroke-width="1.5"></path>
        <path d="M948.57 107.57L979.54 -80.98" stroke="rgba(97, 97, 97, 1)" stroke-width="1.5"></path>
        <path d="M948.57 107.57L1154.48 -49.75" stroke="rgba(97, 97, 97, 1)" stroke-width="1.5"></path>
        <path d="M987.26 212.38L987.26 212.38" stroke="rgba(97, 97, 97, 1)" stroke-width="1.5"></path>
        <path d="M952.12 380.1L952.12 380.1" stroke="rgba(97, 97, 97, 1)" stroke-width="1.5"></path>
        <path d="M952.12 380.1L965.5 548.15" stroke="rgba(97, 97, 97, 1)" stroke-width="1.5"></path>
        <path d="M952.12 380.1L855.67 239.28" stroke="rgba(97, 97, 97, 1)" stroke-width="1.5"></path>
        <path d="M952.12 380.1L987.26 212.38" stroke="rgba(97, 97, 97, 1)" stroke-width="1.5"></path>
        <path d="M952.12 380.1L833.81 524.86" stroke="rgba(97, 97, 97, 1)" stroke-width="1.5"></path>
        <path d="M952.12 380.1L1112.47 525.56" stroke="rgba(97, 97, 97, 1)" stroke-width="1.5"></path>
        <path d="M965.5 548.15L965.5 548.15" stroke="rgba(97, 97, 97, 1)" stroke-width="1.5"></path>
        <path d="M965.5 548.15L1112.47 525.56" stroke="rgba(97, 97, 97, 1)" stroke-width="1.5"></path>
        <path d="M1154.48 -49.75L1154.48 -49.75" stroke="rgba(97, 97, 97, 1)" stroke-width="1.5"></path>
        <path d="M1154.48 -49.75L1239.39 -50.43" stroke="rgba(97, 97, 97, 1)" stroke-width="1.5"></path>
        <path d="M1154.48 -49.75L1124.59 85.86" stroke="rgba(97, 97, 97, 1)" stroke-width="1.5"></path>
        <path d="M1154.48 -49.75L1262.06 47" stroke="rgba(97, 97, 97, 1)" stroke-width="1.5"></path>
        <path d="M1154.48 -49.75L1264.57 203.15" stroke="rgba(97, 97, 97, 1)" stroke-width="1.5"></path>
        <path d="M1124.59 85.86L1124.59 85.86" stroke="rgba(97, 97, 97, 1)" stroke-width="1.5"></path>
        <path d="M1124.59 85.86L1262.06 47" stroke="rgba(97, 97, 97, 1)" stroke-width="1.5"></path>
        <path d="M1112.47 525.56L1112.47 525.56" stroke="rgba(97, 97, 97, 1)" stroke-width="1.5"></path>
        <path d="M1112.47 525.56L1239.29 507.57" stroke="rgba(97, 97, 97, 1)" stroke-width="1.5"></path>
        <path d="M1112.47 525.56L1102.68 664.92" stroke="rgba(97, 97, 97, 1)" stroke-width="1.5"></path>
        <path d="M1112.47 525.56L1274.9 673.79" stroke="rgba(97, 97, 97, 1)" stroke-width="1.5"></path>
        <path d="M1112.47 525.56L1293.81 347.73" stroke="rgba(97, 97, 97, 1)" stroke-width="1.5"></path>
        <path d="M1102.68 664.92L1102.68 664.92" stroke="rgba(97, 97, 97, 1)" stroke-width="1.5"></path>
        <path d="M1102.68 664.92L1274.9 673.79" stroke="rgba(97, 97, 97, 1)" stroke-width="1.5"></path>
        <path d="M1102.68 664.92L965.5 548.15" stroke="rgba(97, 97, 97, 1)" stroke-width="1.5"></path>
        <path d="M1239.39 -50.43L1239.39 -50.43" stroke="rgba(97, 97, 97, 1)" stroke-width="1.5"></path>
        <path d="M1239.39 -50.43L1262.06 47" stroke="rgba(97, 97, 97, 1)" stroke-width="1.5"></path>
        <path d="M1239.39 -50.43L1124.59 85.86" stroke="rgba(97, 97, 97, 1)" stroke-width="1.5"></path>
        <path d="M1239.39 -50.43L1440.21 -56.91" stroke="rgba(97, 97, 97, 1)" stroke-width="1.5"></path>
        <path d="M1239.39 -50.43L1417.68 98.88" stroke="rgba(97, 97, 97, 1)" stroke-width="1.5"></path>
        <path d="M1239.39 -50.43L1264.57 203.15" stroke="rgba(97, 97, 97, 1)" stroke-width="1.5"></path>
        <path d="M1262.06 47L1262.06 47" stroke="rgba(97, 97, 97, 1)" stroke-width="1.5"></path>
        <path d="M1262.06 47L1264.57 203.15" stroke="rgba(97, 97, 97, 1)" stroke-width="1.5"></path>
        <path d="M1264.57 203.15L1264.57 203.15" stroke="rgba(97, 97, 97, 1)" stroke-width="1.5"></path>
        <path d="M1264.57 203.15L1293.81 347.73" stroke="rgba(97, 97, 97, 1)" stroke-width="1.5"></path>
        <path d="M1264.57 203.15L1124.59 85.86" stroke="rgba(97, 97, 97, 1)" stroke-width="1.5"></path>
        <path d="M1293.81 347.73L1293.81 347.73" stroke="rgba(97, 97, 97, 1)" stroke-width="1.5"></path>
        <path d="M1293.81 347.73L1439.32 386.33" stroke="rgba(97, 97, 97, 1)" stroke-width="1.5"></path>
        <path d="M1239.29 507.57L1239.29 507.57" stroke="rgba(97, 97, 97, 1)" stroke-width="1.5"></path>
        <path d="M1239.29 507.57L1293.81 347.73" stroke="rgba(97, 97, 97, 1)" stroke-width="1.5"></path>
        <path d="M1239.29 507.57L1274.9 673.79" stroke="rgba(97, 97, 97, 1)" stroke-width="1.5"></path>
        <path d="M1274.9 673.79L1274.9 673.79" stroke="rgba(97, 97, 97, 1)" stroke-width="1.5"></path>
        <path d="M1274.9 673.79L1454.5 652.03" stroke="rgba(97, 97, 97, 1)" stroke-width="1.5"></path>
        <path d="M1274.9 673.79L1417.15 530.82" stroke="rgba(97, 97, 97, 1)" stroke-width="1.5"></path>
        <path d="M1274.9 673.79L1591.9 690.15" stroke="rgba(97, 97, 97, 1)" stroke-width="1.5"></path>
        <path d="M1440.21 -56.91L1440.21 -56.91" stroke="rgba(97, 97, 97, 1)" stroke-width="1.5"></path>
        <path d="M1440.21 -56.91L1556.56 44.78" stroke="rgba(97, 97, 97, 1)" stroke-width="1.5"></path>
        <path d="M1440.21 -56.91L1592.37 -93.07" stroke="rgba(97, 97, 97, 1)" stroke-width="1.5"></path>
        <path d="M1440.21 -56.91L1417.68 98.88" stroke="rgba(97, 97, 97, 1)" stroke-width="1.5"></path>
        <path d="M1440.21 -56.91L1262.06 47" stroke="rgba(97, 97, 97, 1)" stroke-width="1.5"></path>
        <path d="M1440.21 -56.91L1456.3 224.54" stroke="rgba(97, 97, 97, 1)" stroke-width="1.5"></path>
        <path d="M1417.68 98.88L1417.68 98.88" stroke="rgba(97, 97, 97, 1)" stroke-width="1.5"></path>
        <path d="M1417.68 98.88L1456.3 224.54" stroke="rgba(97, 97, 97, 1)" stroke-width="1.5"></path>
        <path d="M1417.68 98.88L1556.56 44.78" stroke="rgba(97, 97, 97, 1)" stroke-width="1.5"></path>
        <path d="M1456.3 224.54L1456.3 224.54" stroke="rgba(97, 97, 97, 1)" stroke-width="1.5"></path>
        <path d="M1456.3 224.54L1606.7 246.43" stroke="rgba(97, 97, 97, 1)" stroke-width="1.5"></path>
        <path d="M1456.3 224.54L1439.32 386.33" stroke="rgba(97, 97, 97, 1)" stroke-width="1.5"></path>
        <path d="M1456.3 224.54L1264.57 203.15" stroke="rgba(97, 97, 97, 1)" stroke-width="1.5"></path>
        <path d="M1439.32 386.33L1439.32 386.33" stroke="rgba(97, 97, 97, 1)" stroke-width="1.5"></path>
        <path d="M1439.32 386.33L1417.15 530.82" stroke="rgba(97, 97, 97, 1)" stroke-width="1.5"></path>
        <path d="M1439.32 386.33L1604.61 358.22" stroke="rgba(97, 97, 97, 1)" stroke-width="1.5"></path>
        <path d="M1417.15 530.82L1417.15 530.82" stroke="rgba(97, 97, 97, 1)" stroke-width="1.5"></path>
        <path d="M1417.15 530.82L1454.5 652.03" stroke="rgba(97, 97, 97, 1)" stroke-width="1.5"></path>
        <path d="M1417.15 530.82L1579.82 540.26" stroke="rgba(97, 97, 97, 1)" stroke-width="1.5"></path>
        <path d="M1417.15 530.82L1239.29 507.57" stroke="rgba(97, 97, 97, 1)" stroke-width="1.5"></path>
        <path d="M1417.15 530.82L1293.81 347.73" stroke="rgba(97, 97, 97, 1)" stroke-width="1.5"></path>
        <path d="M1454.5 652.03L1454.5 652.03" stroke="rgba(97, 97, 97, 1)" stroke-width="1.5"></path>
        <path d="M1454.5 652.03L1591.9 690.15" stroke="rgba(97, 97, 97, 1)" stroke-width="1.5"></path>
        <path d="M1454.5 652.03L1579.82 540.26" stroke="rgba(97, 97, 97, 1)" stroke-width="1.5"></path>
        <path d="M1592.37 -93.07L1592.37 -93.07" stroke="rgba(97, 97, 97, 1)" stroke-width="1.5"></path>
        <path d="M1592.37 -93.07L1556.56 44.78" stroke="rgba(97, 97, 97, 1)" stroke-width="1.5"></path>
        <path d="M1592.37 -93.07L1417.68 98.88" stroke="rgba(97, 97, 97, 1)" stroke-width="1.5"></path>
        <path d="M1592.37 -93.07L1606.7 246.43" stroke="rgba(97, 97, 97, 1)" stroke-width="1.5"></path>
        <path d="M1592.37 -93.07L1456.3 224.54" stroke="rgba(97, 97, 97, 1)" stroke-width="1.5"></path>
        <path d="M1592.37 -93.07L1239.39 -50.43" stroke="rgba(97, 97, 97, 1)" stroke-width="1.5"></path>
        <path d="M1556.56 44.78L1556.56 44.78" stroke="rgba(97, 97, 97, 1)" stroke-width="1.5"></path>
        <path d="M1556.56 44.78L1456.3 224.54" stroke="rgba(97, 97, 97, 1)" stroke-width="1.5"></path>
        <path d="M1606.7 246.43L1606.7 246.43" stroke="rgba(97, 97, 97, 1)" stroke-width="1.5"></path>
        <path d="M1606.7 246.43L1604.61 358.22" stroke="rgba(97, 97, 97, 1)" stroke-width="1.5"></path>
        <path d="M1606.7 246.43L1556.56 44.78" stroke="rgba(97, 97, 97, 1)" stroke-width="1.5"></path>
        <path d="M1606.7 246.43L1439.32 386.33" stroke="rgba(97, 97, 97, 1)" stroke-width="1.5"></path>
        <path d="M1606.7 246.43L1417.68 98.88" stroke="rgba(97, 97, 97, 1)" stroke-width="1.5"></path>
        <path d="M1604.61 358.22L1604.61 358.22" stroke="rgba(97, 97, 97, 1)" stroke-width="1.5"></path>
        <path d="M1604.61 358.22L1579.82 540.26" stroke="rgba(97, 97, 97, 1)" stroke-width="1.5"></path>
        <path d="M1604.61 358.22L1456.3 224.54" stroke="rgba(97, 97, 97, 1)" stroke-width="1.5"></path>
        <path d="M1579.82 540.26L1579.82 540.26" stroke="rgba(97, 97, 97, 1)" stroke-width="1.5"></path>
        <path d="M1579.82 540.26L1591.9 690.15" stroke="rgba(97, 97, 97, 1)" stroke-width="1.5"></path>
        <path d="M1579.82 540.26L1439.32 386.33" stroke="rgba(97, 97, 97, 1)" stroke-width="1.5"></path>
        <path d="M1591.9 690.15L1591.9 690.15" stroke="rgba(97, 97, 97, 1)" stroke-width="1.5"></path>
        <circle r="5" cx="-39.33" cy="349.5" fill="rgba(97, 97, 97, 1)"></circle>
        <circle r="5" cx="-98.7" cy="552.17" fill="rgba(97, 97, 97, 1)"></circle>
        <circle r="5" cx="-84.06" cy="693.93" fill="rgba(97, 97, 97, 1)"></circle>
        <circle r="5" cx="88.55" cy="395.58" fill="rgba(97, 97, 97, 1)"></circle>
        <circle r="5" cx="37.6" cy="511.68" fill="rgba(97, 97, 97, 1)"></circle>
        <circle r="5" cx="100.54" cy="684.82" fill="rgba(97, 97, 97, 1)"></circle>
        <circle r="5" cx="202.28" cy="369.54" fill="rgba(97, 97, 97, 1)"></circle>
        <circle r="5" cx="241.14" cy="544.78" fill="rgba(97, 97, 97, 1)"></circle>
        <circle r="5" cx="209.41" cy="647.74" fill="rgba(97, 97, 97, 1)"></circle>
        <circle r="5" cx="363.29" cy="350.02" fill="rgba(97, 97, 97, 1)"></circle>
        <circle r="5" cx="392.07" cy="521.52" fill="rgba(97, 97, 97, 1)"></circle>
        <circle r="5" cx="410.48" cy="708.54" fill="rgba(97, 97, 97, 1)"></circle>
        <circle r="5" cx="513.2" cy="353.78" fill="rgba(97, 97, 97, 1)"></circle>
        <circle r="5" cx="547.9" cy="488.51" fill="rgba(97, 97, 97, 1)"></circle>
        <circle r="5" cx="541.37" cy="679.25" fill="rgba(97, 97, 97, 1)"></circle>
        <circle r="5" cx="655.46" cy="345.19" fill="rgba(97, 97, 97, 1)"></circle>
        <circle r="5" cx="684.85" cy="544.02" fill="rgba(97, 97, 97, 1)"></circle>
        <circle r="5" cx="684.39" cy="665.23" fill="rgba(97, 97, 97, 1)"></circle>
        <circle r="5" cx="855.67" cy="239.28" fill="rgba(97, 97, 97, 1)"></circle>
        <circle r="5" cx="833.81" cy="524.86" fill="rgba(97, 97, 97, 1)"></circle>
        <circle r="5" cx="813.37" cy="640.49" fill="rgba(97, 97, 97, 1)"></circle>
        <circle r="5" cx="979.54" cy="-80.98" fill="rgba(97, 97, 97, 1)"></circle>
        <circle r="5" cx="948.57" cy="107.57" fill="rgba(97, 97, 97, 1)"></circle>
        <circle r="5" cx="987.26" cy="212.38" fill="rgba(97, 97, 97, 1)"></circle>
        <circle r="5" cx="952.12" cy="380.1" fill="rgba(97, 97, 97, 1)"></circle>
        <circle r="5" cx="965.5" cy="548.15" fill="rgba(97, 97, 97, 1)"></circle>
        <circle r="5" cx="1154.48" cy="-49.75" fill="rgba(97, 97, 97, 1)"></circle>
        <circle r="5" cx="1124.59" cy="85.86" fill="rgba(97, 97, 97, 1)"></circle>
        <circle r="5" cx="1112.47" cy="525.56" fill="rgba(97, 97, 97, 1)"></circle>
        <circle r="5" cx="1102.68" cy="664.92" fill="rgba(97, 97, 97, 1)"></circle>
        <circle r="5" cx="1239.39" cy="-50.43" fill="rgba(97, 97, 97, 1)"></circle>
        <circle r="5" cx="1262.06" cy="47" fill="rgba(97, 97, 97, 1)"></circle>
        <circle r="5" cx="1264.57" cy="203.15" fill="rgba(97, 97, 97, 1)"></circle>
        <circle r="5" cx="1293.81" cy="347.73" fill="rgba(97, 97, 97, 1)"></circle>
        <circle r="5" cx="1239.29" cy="507.57" fill="rgba(97, 97, 97, 1)"></circle>
        <circle r="5" cx="1274.9" cy="673.79" fill="rgba(97, 97, 97, 1)"></circle>
        <circle r="5" cx="1440.21" cy="-56.91" fill="rgba(97, 97, 97, 1)"></circle>
        <circle r="5" cx="1417.68" cy="98.88" fill="rgba(97, 97, 97, 1)"></circle>
        <circle r="5" cx="1456.3" cy="224.54" fill="rgba(97, 97, 97, 1)"></circle>
        <circle r="5" cx="1439.32" cy="386.33" fill="rgba(97, 97, 97, 1)"></circle>
        <circle r="5" cx="1417.15" cy="530.82" fill="rgba(97, 97, 97, 1)"></circle>
        <circle r="5" cx="1454.5" cy="652.03" fill="rgba(97, 97, 97, 1)"></circle>
        <circle r="5" cx="1592.37" cy="-93.07" fill="rgba(97, 97, 97, 1)"></circle>
        <circle r="5" cx="1556.56" cy="44.78" fill="rgba(97, 97, 97, 1)"></circle>
        <circle r="5" cx="1606.7" cy="246.43" fill="rgba(97, 97, 97, 1)"></circle>
        <circle r="5" cx="1604.61" cy="358.22" fill="rgba(97, 97, 97, 1)"></circle>
        <circle r="5" cx="1579.82" cy="540.26" fill="rgba(97, 97, 97, 1)"></circle>
        <circle r="5" cx="1591.9" cy="690.15" fill="rgba(97, 97, 97, 1)"></circle>
        <path d="M195.38 499.08L195.38 499.08" stroke="hsl(225, 1.8%, 57.6%)" stroke-width="1.5"></path>
        <path d="M195.38 499.08L60.84 502.25" stroke="hsl(225, 1.8%, 57.6%)" stroke-width="1.5"></path>
        <path d="M195.38 499.08L232.9 693.44" stroke="hsl(225, 1.8%, 57.6%)" stroke-width="1.5"></path>
        <path d="M195.38 499.08L398.93 518.71" stroke="hsl(225, 1.8%, 57.6%)" stroke-width="1.5"></path>
        <path d="M398.93 518.71L398.93 518.71" stroke="hsl(225, 1.8%, 57.6%)" stroke-width="1.5"></path>
        <path d="M398.93 518.71L500.35 555.44" stroke="hsl(225, 1.8%, 57.6%)" stroke-width="1.5"></path>
        <path d="M398.93 518.71L371.48 684.95" stroke="hsl(225, 1.8%, 57.6%)" stroke-width="1.5"></path>
        <path d="M398.93 518.71L527.28 665.93" stroke="hsl(225, 1.8%, 57.6%)" stroke-width="1.5"></path>
        <path d="M803.06 363.64L803.06 363.64" stroke="hsl(225, 1.8%, 57.6%)" stroke-width="1.5"></path>
        <path d="M803.06 363.64L664.48 378.49" stroke="hsl(225, 1.8%, 57.6%)" stroke-width="1.5"></path>
        <path d="M803.06 363.64L961.35 394.9" stroke="hsl(225, 1.8%, 57.6%)" stroke-width="1.5"></path>
        <path d="M803.06 363.64L852.35 538.36" stroke="hsl(225, 1.8%, 57.6%)" stroke-width="1.5"></path>
        <path d="M803.06 363.64L944.4 501.1" stroke="hsl(225, 1.8%, 57.6%)" stroke-width="1.5"></path>
        <path d="M803.06 363.64L680.3 639.54" stroke="hsl(225, 1.8%, 57.6%)" stroke-width="1.5"></path>
        <path d="M803.06 363.64L846.38 671.77" stroke="hsl(225, 1.8%, 57.6%)" stroke-width="1.5"></path>
        <path d="M961.35 394.9L961.35 394.9" stroke="hsl(225, 1.8%, 57.6%)" stroke-width="1.5"></path>
        <path d="M961.35 394.9L944.4 501.1" stroke="hsl(225, 1.8%, 57.6%)" stroke-width="1.5"></path>
        <path d="M961.35 394.9L1117.43 391.93" stroke="hsl(225, 1.8%, 57.6%)" stroke-width="1.5"></path>
        <path d="M961.35 394.9L852.35 538.36" stroke="hsl(225, 1.8%, 57.6%)" stroke-width="1.5"></path>
        <path d="M961.35 394.9L1103.01 540.07" stroke="hsl(225, 1.8%, 57.6%)" stroke-width="1.5"></path>
        <path d="M1300.61 67.79L1300.61 67.79" stroke="hsl(225, 1.8%, 57.6%)" stroke-width="1.5"></path>
        <path d="M1300.61 67.79L1260.81 201.06" stroke="hsl(225, 1.8%, 57.6%)" stroke-width="1.5"></path>
        <path d="M1300.61 67.79L1437.84 110.6" stroke="hsl(225, 1.8%, 57.6%)" stroke-width="1.5"></path>
        <path d="M-105.94 505.47L-105.94 505.47" stroke="hsl(225, 1.8%, 57.6%)" stroke-width="1.5"></path>
        <path d="M-105.94 505.47L-40.56 653.73" stroke="hsl(225, 1.8%, 57.6%)" stroke-width="1.5"></path>
        <path d="M-105.94 505.47L60.84 502.25" stroke="hsl(225, 1.8%, 57.6%)" stroke-width="1.5"></path>
        <path d="M-105.94 505.47L86.47 693.33" stroke="hsl(225, 1.8%, 57.6%)" stroke-width="1.5"></path>
        <path d="M-105.94 505.47L195.38 499.08" stroke="hsl(225, 1.8%, 57.6%)" stroke-width="1.5"></path>
        <path d="M-105.94 505.47L232.9 693.44" stroke="hsl(225, 1.8%, 57.6%)" stroke-width="1.5"></path>
        <path d="M-40.56 653.73L-40.56 653.73" stroke="hsl(225, 1.8%, 57.6%)" stroke-width="1.5"></path>
        <path d="M-40.56 653.73L86.47 693.33" stroke="hsl(225, 1.8%, 57.6%)" stroke-width="1.5"></path>
        <path d="M-40.56 653.73L60.84 502.25" stroke="hsl(225, 1.8%, 57.6%)" stroke-width="1.5"></path>
        <path d="M60.84 502.25L60.84 502.25" stroke="hsl(225, 1.8%, 57.6%)" stroke-width="1.5"></path>
        <path d="M86.47 693.33L86.47 693.33" stroke="hsl(225, 1.8%, 57.6%)" stroke-width="1.5"></path>
        <path d="M86.47 693.33L232.9 693.44" stroke="hsl(225, 1.8%, 57.6%)" stroke-width="1.5"></path>
        <path d="M86.47 693.33L60.84 502.25" stroke="hsl(225, 1.8%, 57.6%)" stroke-width="1.5"></path>
        <path d="M86.47 693.33L195.38 499.08" stroke="hsl(225, 1.8%, 57.6%)" stroke-width="1.5"></path>
        <path d="M232.9 693.44L232.9 693.44" stroke="hsl(225, 1.8%, 57.6%)" stroke-width="1.5"></path>
        <path d="M232.9 693.44L371.48 684.95" stroke="hsl(225, 1.8%, 57.6%)" stroke-width="1.5"></path>
        <path d="M232.9 693.44L398.93 518.71" stroke="hsl(225, 1.8%, 57.6%)" stroke-width="1.5"></path>
        <path d="M232.9 693.44L60.84 502.25" stroke="hsl(225, 1.8%, 57.6%)" stroke-width="1.5"></path>
        <path d="M371.48 684.95L371.48 684.95" stroke="hsl(225, 1.8%, 57.6%)" stroke-width="1.5"></path>
        <path d="M371.48 684.95L527.28 665.93" stroke="hsl(225, 1.8%, 57.6%)" stroke-width="1.5"></path>
        <path d="M371.48 684.95L500.35 555.44" stroke="hsl(225, 1.8%, 57.6%)" stroke-width="1.5"></path>
        <path d="M371.48 684.95L195.38 499.08" stroke="hsl(225, 1.8%, 57.6%)" stroke-width="1.5"></path>
        <path d="M500.35 555.44L500.35 555.44" stroke="hsl(225, 1.8%, 57.6%)" stroke-width="1.5"></path>
        <path d="M500.35 555.44L527.28 665.93" stroke="hsl(225, 1.8%, 57.6%)" stroke-width="1.5"></path>
        <path d="M500.35 555.44L680.3 639.54" stroke="hsl(225, 1.8%, 57.6%)" stroke-width="1.5"></path>
        <path d="M500.35 555.44L664.48 378.49" stroke="hsl(225, 1.8%, 57.6%)" stroke-width="1.5"></path>
        <path d="M527.28 665.93L527.28 665.93" stroke="hsl(225, 1.8%, 57.6%)" stroke-width="1.5"></path>
        <path d="M527.28 665.93L680.3 639.54" stroke="hsl(225, 1.8%, 57.6%)" stroke-width="1.5"></path>
        <path d="M664.48 378.49L664.48 378.49" stroke="hsl(225, 1.8%, 57.6%)" stroke-width="1.5"></path>
        <path d="M664.48 378.49L852.35 538.36" stroke="hsl(225, 1.8%, 57.6%)" stroke-width="1.5"></path>
        <path d="M664.48 378.49L680.3 639.54" stroke="hsl(225, 1.8%, 57.6%)" stroke-width="1.5"></path>
        <path d="M664.48 378.49L961.35 394.9" stroke="hsl(225, 1.8%, 57.6%)" stroke-width="1.5"></path>
        <path d="M664.48 378.49L398.93 518.71" stroke="hsl(225, 1.8%, 57.6%)" stroke-width="1.5"></path>
        <path d="M680.3 639.54L680.3 639.54" stroke="hsl(225, 1.8%, 57.6%)" stroke-width="1.5"></path>
        <path d="M680.3 639.54L846.38 671.77" stroke="hsl(225, 1.8%, 57.6%)" stroke-width="1.5"></path>
        <path d="M680.3 639.54L852.35 538.36" stroke="hsl(225, 1.8%, 57.6%)" stroke-width="1.5"></path>
        <path d="M852.35 538.36L852.35 538.36" stroke="hsl(225, 1.8%, 57.6%)" stroke-width="1.5"></path>
        <path d="M852.35 538.36L944.4 501.1" stroke="hsl(225, 1.8%, 57.6%)" stroke-width="1.5"></path>
        <path d="M852.35 538.36L846.38 671.77" stroke="hsl(225, 1.8%, 57.6%)" stroke-width="1.5"></path>
        <path d="M852.35 538.36L976.53 657.81" stroke="hsl(225, 1.8%, 57.6%)" stroke-width="1.5"></path>
        <path d="M846.38 671.77L846.38 671.77" stroke="hsl(225, 1.8%, 57.6%)" stroke-width="1.5"></path>
        <path d="M846.38 671.77L976.53 657.81" stroke="hsl(225, 1.8%, 57.6%)" stroke-width="1.5"></path>
        <path d="M846.38 671.77L944.4 501.1" stroke="hsl(225, 1.8%, 57.6%)" stroke-width="1.5"></path>
        <path d="M846.38 671.77L1103.01 540.07" stroke="hsl(225, 1.8%, 57.6%)" stroke-width="1.5"></path>
        <path d="M944.4 501.1L944.4 501.1" stroke="hsl(225, 1.8%, 57.6%)" stroke-width="1.5"></path>
        <path d="M976.53 657.81L976.53 657.81" stroke="hsl(225, 1.8%, 57.6%)" stroke-width="1.5"></path>
        <path d="M976.53 657.81L944.4 501.1" stroke="hsl(225, 1.8%, 57.6%)" stroke-width="1.5"></path>
        <path d="M1160.8 -54.02L1160.8 -54.02" stroke="hsl(225, 1.8%, 57.6%)" stroke-width="1.5"></path>
        <path d="M1160.8 -54.02L1245.79 -97.53" stroke="hsl(225, 1.8%, 57.6%)" stroke-width="1.5"></path>
        <path d="M1160.8 -54.02L1300.61 67.79" stroke="hsl(225, 1.8%, 57.6%)" stroke-width="1.5"></path>
        <path d="M1160.8 -54.02L1398.95 -110.49" stroke="hsl(225, 1.8%, 57.6%)" stroke-width="1.5"></path>
        <path d="M1160.8 -54.02L1260.81 201.06" stroke="hsl(225, 1.8%, 57.6%)" stroke-width="1.5"></path>
        <path d="M1160.8 -54.02L1099.04 234.27" stroke="hsl(225, 1.8%, 57.6%)" stroke-width="1.5"></path>
        <path d="M1099.04 234.27L1099.04 234.27" stroke="hsl(225, 1.8%, 57.6%)" stroke-width="1.5"></path>
        <path d="M1099.04 234.27L1117.43 391.93" stroke="hsl(225, 1.8%, 57.6%)" stroke-width="1.5"></path>
        <path d="M1099.04 234.27L1260.81 201.06" stroke="hsl(225, 1.8%, 57.6%)" stroke-width="1.5"></path>
        <path d="M1117.43 391.93L1117.43 391.93" stroke="hsl(225, 1.8%, 57.6%)" stroke-width="1.5"></path>
        <path d="M1117.43 391.93L1103.01 540.07" stroke="hsl(225, 1.8%, 57.6%)" stroke-width="1.5"></path>
        <path d="M1117.43 391.93L944.4 501.1" stroke="hsl(225, 1.8%, 57.6%)" stroke-width="1.5"></path>
        <path d="M1117.43 391.93L1292.24 550.36" stroke="hsl(225, 1.8%, 57.6%)" stroke-width="1.5"></path>
        <path d="M1117.43 391.93L1260.81 201.06" stroke="hsl(225, 1.8%, 57.6%)" stroke-width="1.5"></path>
        <path d="M1103.01 540.07L1103.01 540.07" stroke="hsl(225, 1.8%, 57.6%)" stroke-width="1.5"></path>
        <path d="M1103.01 540.07L944.4 501.1" stroke="hsl(225, 1.8%, 57.6%)" stroke-width="1.5"></path>
        <path d="M1103.01 540.07L976.53 657.81" stroke="hsl(225, 1.8%, 57.6%)" stroke-width="1.5"></path>
        <path d="M1103.01 540.07L1292.24 550.36" stroke="hsl(225, 1.8%, 57.6%)" stroke-width="1.5"></path>
        <path d="M1245.79 -97.53L1245.79 -97.53" stroke="hsl(225, 1.8%, 57.6%)" stroke-width="1.5"></path>
        <path d="M1245.79 -97.53L1398.95 -110.49" stroke="hsl(225, 1.8%, 57.6%)" stroke-width="1.5"></path>
        <path d="M1245.79 -97.53L1300.61 67.79" stroke="hsl(225, 1.8%, 57.6%)" stroke-width="1.5"></path>
        <path d="M1245.79 -97.53L1437.84 110.6" stroke="hsl(225, 1.8%, 57.6%)" stroke-width="1.5"></path>
        <path d="M1260.81 201.06L1260.81 201.06" stroke="hsl(225, 1.8%, 57.6%)" stroke-width="1.5"></path>
        <path d="M1260.81 201.06L1417.51 224.56" stroke="hsl(225, 1.8%, 57.6%)" stroke-width="1.5"></path>
        <path d="M1292.24 550.36L1292.24 550.36" stroke="hsl(225, 1.8%, 57.6%)" stroke-width="1.5"></path>
        <path d="M1292.24 550.36L1395.77 520.35" stroke="hsl(225, 1.8%, 57.6%)" stroke-width="1.5"></path>
        <path d="M1292.24 550.36L1266.01 709.32" stroke="hsl(225, 1.8%, 57.6%)" stroke-width="1.5"></path>
        <path d="M1292.24 550.36L1456.79 381.65" stroke="hsl(225, 1.8%, 57.6%)" stroke-width="1.5"></path>
        <path d="M1266.01 709.32L1266.01 709.32" stroke="hsl(225, 1.8%, 57.6%)" stroke-width="1.5"></path>
        <path d="M1266.01 709.32L1395.77 520.35" stroke="hsl(225, 1.8%, 57.6%)" stroke-width="1.5"></path>
        <path d="M1266.01 709.32L1103.01 540.07" stroke="hsl(225, 1.8%, 57.6%)" stroke-width="1.5"></path>
        <path d="M1266.01 709.32L976.53 657.81" stroke="hsl(225, 1.8%, 57.6%)" stroke-width="1.5"></path>
        <path d="M1398.95 -110.49L1398.95 -110.49" stroke="hsl(225, 1.8%, 57.6%)" stroke-width="1.5"></path>
        <path d="M1398.95 -110.49L1588.4 -80.27" stroke="hsl(225, 1.8%, 57.6%)" stroke-width="1.5"></path>
        <path d="M1437.84 110.6L1437.84 110.6" stroke="hsl(225, 1.8%, 57.6%)" stroke-width="1.5"></path>
        <path d="M1437.84 110.6L1542.06 79.2" stroke="hsl(225, 1.8%, 57.6%)" stroke-width="1.5"></path>
        <path d="M1437.84 110.6L1417.51 224.56" stroke="hsl(225, 1.8%, 57.6%)" stroke-width="1.5"></path>
        <path d="M1417.51 224.56L1417.51 224.56" stroke="hsl(225, 1.8%, 57.6%)" stroke-width="1.5"></path>
        <path d="M1417.51 224.56L1456.79 381.65" stroke="hsl(225, 1.8%, 57.6%)" stroke-width="1.5"></path>
        <path d="M1417.51 224.56L1542.06 79.2" stroke="hsl(225, 1.8%, 57.6%)" stroke-width="1.5"></path>
        <path d="M1417.51 224.56L1608.72 213.77" stroke="hsl(225, 1.8%, 57.6%)" stroke-width="1.5"></path>
        <path d="M1456.79 381.65L1456.79 381.65" stroke="hsl(225, 1.8%, 57.6%)" stroke-width="1.5"></path>
        <path d="M1456.79 381.65L1563.2 402.05" stroke="hsl(225, 1.8%, 57.6%)" stroke-width="1.5"></path>
        <path d="M1456.79 381.65L1395.77 520.35" stroke="hsl(225, 1.8%, 57.6%)" stroke-width="1.5"></path>
        <path d="M1395.77 520.35L1395.77 520.35" stroke="hsl(225, 1.8%, 57.6%)" stroke-width="1.5"></path>
        <path d="M1395.77 520.35L1570.57 542.99" stroke="hsl(225, 1.8%, 57.6%)" stroke-width="1.5"></path>
        <path d="M1395.77 520.35L1563.2 402.05" stroke="hsl(225, 1.8%, 57.6%)" stroke-width="1.5"></path>
        <path d="M1588.4 -80.27L1588.4 -80.27" stroke="hsl(225, 1.8%, 57.6%)" stroke-width="1.5"></path>
        <path d="M1588.4 -80.27L1542.06 79.2" stroke="hsl(225, 1.8%, 57.6%)" stroke-width="1.5"></path>
        <path d="M1542.06 79.2L1542.06 79.2" stroke="hsl(225, 1.8%, 57.6%)" stroke-width="1.5"></path>
        <path d="M1542.06 79.2L1608.72 213.77" stroke="hsl(225, 1.8%, 57.6%)" stroke-width="1.5"></path>
        <path d="M1608.72 213.77L1608.72 213.77" stroke="hsl(225, 1.8%, 57.6%)" stroke-width="1.5"></path>
        <path d="M1608.72 213.77L1563.2 402.05" stroke="hsl(225, 1.8%, 57.6%)" stroke-width="1.5"></path>
        <path d="M1608.72 213.77L1437.84 110.6" stroke="hsl(225, 1.8%, 57.6%)" stroke-width="1.5"></path>
        <path d="M1608.72 213.77L1456.79 381.65" stroke="hsl(225, 1.8%, 57.6%)" stroke-width="1.5"></path>
        <path d="M1608.72 213.77L1588.4 -80.27" stroke="hsl(225, 1.8%, 57.6%)" stroke-width="1.5"></path>
        <path d="M1563.2 402.05L1563.2 402.05" stroke="hsl(225, 1.8%, 57.6%)" stroke-width="1.5"></path>
        <path d="M1563.2 402.05L1570.57 542.99" stroke="hsl(225, 1.8%, 57.6%)" stroke-width="1.5"></path>
        <path d="M1570.57 542.99L1570.57 542.99" stroke="hsl(225, 1.8%, 57.6%)" stroke-width="1.5"></path>
        <path d="M1570.57 542.99L1456.79 381.65" stroke="hsl(225, 1.8%, 57.6%)" stroke-width="1.5"></path>
        <path d="M1570.57 542.99L1292.24 550.36" stroke="hsl(225, 1.8%, 57.6%)" stroke-width="1.5"></path>
        <circle r="25" cx="195.38" cy="499.08" fill="url(&quot;#SvgjsRadialGradient1011&quot;)"></circle>
        <circle r="25" cx="398.93" cy="518.71" fill="url(&quot;#SvgjsRadialGradient1011&quot;)"></circle>
        <circle r="25" cx="803.06" cy="363.64" fill="url(&quot;#SvgjsRadialGradient1011&quot;)"></circle>
        <circle r="25" cx="961.35" cy="394.9" fill="url(&quot;#SvgjsRadialGradient1011&quot;)"></circle>
        <circle r="25" cx="1300.61" cy="67.79" fill="url(&quot;#SvgjsRadialGradient1011&quot;)"></circle>
        <circle r="5" cx="-105.94" cy="505.47" fill="#b7b8b9"></circle>
        <circle r="5" cx="-40.56" cy="653.73" fill="#b7b8b9"></circle>
        <circle r="5" cx="60.84" cy="502.25" fill="#b7b8b9"></circle>
        <circle r="5" cx="86.47" cy="693.33" fill="#b7b8b9"></circle>
        <circle r="5" cx="232.9" cy="693.44" fill="#b7b8b9"></circle>
        <circle r="5" cx="371.48" cy="684.95" fill="#b7b8b9"></circle>
        <circle r="5" cx="500.35" cy="555.44" fill="#b7b8b9"></circle>
        <circle r="5" cx="527.28" cy="665.93" fill="#b7b8b9"></circle>
        <circle r="5" cx="664.48" cy="378.49" fill="#b7b8b9"></circle>
        <circle r="5" cx="680.3" cy="639.54" fill="#b7b8b9"></circle>
        <circle r="5" cx="852.35" cy="538.36" fill="#b7b8b9"></circle>
        <circle r="5" cx="846.38" cy="671.77" fill="#b7b8b9"></circle>
        <circle r="5" cx="944.4" cy="501.1" fill="#b7b8b9"></circle>
        <circle r="5" cx="976.53" cy="657.81" fill="#b7b8b9"></circle>
        <circle r="5" cx="1160.8" cy="-54.02" fill="#b7b8b9"></circle>
        <circle r="5" cx="1099.04" cy="234.27" fill="#b7b8b9"></circle>
        <circle r="5" cx="1117.43" cy="391.93" fill="#b7b8b9"></circle>
        <circle r="5" cx="1103.01" cy="540.07" fill="#b7b8b9"></circle>
        <circle r="5" cx="1245.79" cy="-97.53" fill="#b7b8b9"></circle>
        <circle r="5" cx="1260.81" cy="201.06" fill="#b7b8b9"></circle>
        <circle r="5" cx="1292.24" cy="550.36" fill="#b7b8b9"></circle>
        <circle r="5" cx="1266.01" cy="709.32" fill="#b7b8b9"></circle>
        <circle r="5" cx="1398.95" cy="-110.49" fill="#b7b8b9"></circle>
        <circle r="5" cx="1437.84" cy="110.6" fill="#b7b8b9"></circle>
        <circle r="5" cx="1417.51" cy="224.56" fill="#b7b8b9"></circle>
        <circle r="5" cx="1456.79" cy="381.65" fill="#b7b8b9"></circle>
        <circle r="5" cx="1395.77" cy="520.35" fill="#b7b8b9"></circle>
        <circle r="5" cx="1588.4" cy="-80.27" fill="#b7b8b9"></circle>
        <circle r="5" cx="1542.06" cy="79.2" fill="#b7b8b9"></circle>
        <circle r="5" cx="1608.72" cy="213.77" fill="#b7b8b9"></circle>
        <circle r="5" cx="1563.2" cy="402.05" fill="#b7b8b9"></circle>
        <circle r="5" cx="1570.57" cy="542.99" fill="#b7b8b9"></circle>
    </g>
    <defs>
        <mask id="SvgjsMask1010">
            <rect width="1440" height="560" fill="#ffffff"></rect>
        </mask>
        <radialGradient id="SvgjsRadialGradient1011">
            <stop stop-color="#ffffff" offset="0.1"></stop>
            <stop stop-color="rgba(111, 112, 115, 1)" offset="0.2"></stop>
            <stop stop-color="rgba(111, 112, 115, 0)" offset="1"></stop>
        </radialGradient>
    </defs>
</svg>