<svg xmlns="http://www.w3.org/2000/svg" version="1.1" xmlns:xlink="http://www.w3.org/1999/xlink" xmlns:svgjs="http://svgjs.dev/svgjs" width="1262.4" height="656" preserveAspectRatio="none" viewBox="0 0 1262.4 656"><g mask="url(&quot;#SvgjsMask1345&quot;)" fill="none"><path d="M-68.43 658.44L-68.43 658.44" stroke="rgba(99, 99, 99, 1)" stroke-width="1.5"></path><path d="M-68.43 658.44L40.74 708" stroke="rgba(99, 99, 99, 1)" stroke-width="1.5"></path><path d="M-68.43 658.44L-68.19 803.9" stroke="rgba(99, 99, 99, 1)" stroke-width="1.5"></path><path d="M-68.43 658.44L48.14 525.04" stroke="rgba(99, 99, 99, 1)" stroke-width="1.5"></path><path d="M-68.43 658.44L77.45 812.46" stroke="rgba(99, 99, 99, 1)" stroke-width="1.5"></path><path d="M-68.19 803.9L-68.19 803.9" stroke="rgba(99, 99, 99, 1)" stroke-width="1.5"></path><path d="M-68.19 803.9L40.74 708" stroke="rgba(99, 99, 99, 1)" stroke-width="1.5"></path><path d="M-68.19 803.9L77.45 812.46" stroke="rgba(99, 99, 99, 1)" stroke-width="1.5"></path><path d="M-68.19 803.9L193.65 808.55" stroke="rgba(99, 99, 99, 1)" stroke-width="1.5"></path><path d="M48.14 525.04L48.14 525.04" stroke="rgba(99, 99, 99, 1)" stroke-width="1.5"></path><path d="M48.14 525.04L218.63 490" stroke="rgba(99, 99, 99, 1)" stroke-width="1.5"></path><path d="M48.14 525.04L40.74 708" stroke="rgba(99, 99, 99, 1)" stroke-width="1.5"></path><path d="M48.14 525.04L191.5 651.79" stroke="rgba(99, 99, 99, 1)" stroke-width="1.5"></path><path d="M48.14 525.04L77.45 812.46" stroke="rgba(99, 99, 99, 1)" stroke-width="1.5"></path><path d="M40.74 708L40.74 708" stroke="rgba(99, 99, 99, 1)" stroke-width="1.5"></path><path d="M40.74 708L77.45 812.46" stroke="rgba(99, 99, 99, 1)" stroke-width="1.5"></path><path d="M77.45 812.46L77.45 812.46" stroke="rgba(99, 99, 99, 1)" stroke-width="1.5"></path><path d="M77.45 812.46L193.65 808.55" stroke="rgba(99, 99, 99, 1)" stroke-width="1.5"></path><path d="M218.63 490L218.63 490" stroke="rgba(99, 99, 99, 1)" stroke-width="1.5"></path><path d="M218.63 490L363.75 562.17" stroke="rgba(99, 99, 99, 1)" stroke-width="1.5"></path><path d="M218.63 490L191.5 651.79" stroke="rgba(99, 99, 99, 1)" stroke-width="1.5"></path><path d="M218.63 490L403.83 365.52" stroke="rgba(99, 99, 99, 1)" stroke-width="1.5"></path><path d="M191.5 651.79L191.5 651.79" stroke="rgba(99, 99, 99, 1)" stroke-width="1.5"></path><path d="M191.5 651.79L193.65 808.55" stroke="rgba(99, 99, 99, 1)" stroke-width="1.5"></path><path d="M191.5 651.79L40.74 708" stroke="rgba(99, 99, 99, 1)" stroke-width="1.5"></path><path d="M193.65 808.55L193.65 808.55" stroke="rgba(99, 99, 99, 1)" stroke-width="1.5"></path><path d="M193.65 808.55L40.74 708" stroke="rgba(99, 99, 99, 1)" stroke-width="1.5"></path><path d="M193.65 808.55L383.04 862.13" stroke="rgba(99, 99, 99, 1)" stroke-width="1.5"></path><path d="M193.65 808.55L391.1 688.53" stroke="rgba(99, 99, 99, 1)" stroke-width="1.5"></path><path d="M403.83 365.52L403.83 365.52" stroke="rgba(99, 99, 99, 1)" stroke-width="1.5"></path><path d="M403.83 365.52L488.24 363.35" stroke="rgba(99, 99, 99, 1)" stroke-width="1.5"></path><path d="M403.83 365.52L363.75 562.17" stroke="rgba(99, 99, 99, 1)" stroke-width="1.5"></path><path d="M403.83 365.52L551.35 555.52" stroke="rgba(99, 99, 99, 1)" stroke-width="1.5"></path><path d="M403.83 365.52L524.01 638.47" stroke="rgba(99, 99, 99, 1)" stroke-width="1.5"></path><path d="M403.83 365.52L702.29 390.73" stroke="rgba(99, 99, 99, 1)" stroke-width="1.5"></path><path d="M363.75 562.17L363.75 562.17" stroke="rgba(99, 99, 99, 1)" stroke-width="1.5"></path><path d="M363.75 562.17L391.1 688.53" stroke="rgba(99, 99, 99, 1)" stroke-width="1.5"></path><path d="M363.75 562.17L524.01 638.47" stroke="rgba(99, 99, 99, 1)" stroke-width="1.5"></path><path d="M391.1 688.53L391.1 688.53" stroke="rgba(99, 99, 99, 1)" stroke-width="1.5"></path><path d="M391.1 688.53L524.01 638.47" stroke="rgba(99, 99, 99, 1)" stroke-width="1.5"></path><path d="M391.1 688.53L383.04 862.13" stroke="rgba(99, 99, 99, 1)" stroke-width="1.5"></path><path d="M383.04 862.13L383.04 862.13" stroke="rgba(99, 99, 99, 1)" stroke-width="1.5"></path><path d="M383.04 862.13L560.78 830.24" stroke="rgba(99, 99, 99, 1)" stroke-width="1.5"></path><path d="M383.04 862.13L524.01 638.47" stroke="rgba(99, 99, 99, 1)" stroke-width="1.5"></path><path d="M488.24 363.35L488.24 363.35" stroke="rgba(99, 99, 99, 1)" stroke-width="1.5"></path><path d="M488.24 363.35L551.35 555.52" stroke="rgba(99, 99, 99, 1)" stroke-width="1.5"></path><path d="M488.24 363.35L702.29 390.73" stroke="rgba(99, 99, 99, 1)" stroke-width="1.5"></path><path d="M488.24 363.35L363.75 562.17" stroke="rgba(99, 99, 99, 1)" stroke-width="1.5"></path><path d="M488.24 363.35L655.45 552.18" stroke="rgba(99, 99, 99, 1)" stroke-width="1.5"></path><path d="M488.24 363.35L687.36 203.39" stroke="rgba(99, 99, 99, 1)" stroke-width="1.5"></path><path d="M551.35 555.52L551.35 555.52" stroke="rgba(99, 99, 99, 1)" stroke-width="1.5"></path><path d="M551.35 555.52L524.01 638.47" stroke="rgba(99, 99, 99, 1)" stroke-width="1.5"></path><path d="M551.35 555.52L655.45 552.18" stroke="rgba(99, 99, 99, 1)" stroke-width="1.5"></path><path d="M551.35 555.52L650.55 706.76" stroke="rgba(99, 99, 99, 1)" stroke-width="1.5"></path><path d="M551.35 555.52L363.75 562.17" stroke="rgba(99, 99, 99, 1)" stroke-width="1.5"></path><path d="M524.01 638.47L524.01 638.47" stroke="rgba(99, 99, 99, 1)" stroke-width="1.5"></path><path d="M524.01 638.47L650.55 706.76" stroke="rgba(99, 99, 99, 1)" stroke-width="1.5"></path><path d="M560.78 830.24L560.78 830.24" stroke="rgba(99, 99, 99, 1)" stroke-width="1.5"></path><path d="M560.78 830.24L690.41 838.43" stroke="rgba(99, 99, 99, 1)" stroke-width="1.5"></path><path d="M560.78 830.24L650.55 706.76" stroke="rgba(99, 99, 99, 1)" stroke-width="1.5"></path><path d="M560.78 830.24L524.01 638.47" stroke="rgba(99, 99, 99, 1)" stroke-width="1.5"></path><path d="M560.78 830.24L391.1 688.53" stroke="rgba(99, 99, 99, 1)" stroke-width="1.5"></path><path d="M687.36 203.39L687.36 203.39" stroke="rgba(99, 99, 99, 1)" stroke-width="1.5"></path><path d="M687.36 203.39L794.98 187.55" stroke="rgba(99, 99, 99, 1)" stroke-width="1.5"></path><path d="M687.36 203.39L702.29 390.73" stroke="rgba(99, 99, 99, 1)" stroke-width="1.5"></path><path d="M702.29 390.73L702.29 390.73" stroke="rgba(99, 99, 99, 1)" stroke-width="1.5"></path><path d="M702.29 390.73L655.45 552.18" stroke="rgba(99, 99, 99, 1)" stroke-width="1.5"></path><path d="M702.29 390.73L844.09 499.03" stroke="rgba(99, 99, 99, 1)" stroke-width="1.5"></path><path d="M702.29 390.73L794.98 187.55" stroke="rgba(99, 99, 99, 1)" stroke-width="1.5"></path><path d="M655.45 552.18L655.45 552.18" stroke="rgba(99, 99, 99, 1)" stroke-width="1.5"></path><path d="M655.45 552.18L650.55 706.76" stroke="rgba(99, 99, 99, 1)" stroke-width="1.5"></path><path d="M650.55 706.76L650.55 706.76" stroke="rgba(99, 99, 99, 1)" stroke-width="1.5"></path><path d="M650.55 706.76L690.41 838.43" stroke="rgba(99, 99, 99, 1)" stroke-width="1.5"></path><path d="M690.41 838.43L690.41 838.43" stroke="rgba(99, 99, 99, 1)" stroke-width="1.5"></path><path d="M690.41 838.43L828.35 804.08" stroke="rgba(99, 99, 99, 1)" stroke-width="1.5"></path><path d="M690.41 838.43L842.41 708.92" stroke="rgba(99, 99, 99, 1)" stroke-width="1.5"></path><path d="M819.36 -102.12L819.36 -102.12" stroke="rgba(99, 99, 99, 1)" stroke-width="1.5"></path><path d="M819.36 -102.12L993.3 -56.02" stroke="rgba(99, 99, 99, 1)" stroke-width="1.5"></path><path d="M819.36 -102.12L1002.74 74.03" stroke="rgba(99, 99, 99, 1)" stroke-width="1.5"></path><path d="M819.36 -102.12L794.98 187.55" stroke="rgba(99, 99, 99, 1)" stroke-width="1.5"></path><path d="M819.36 -102.12L1120.98 -75.4" stroke="rgba(99, 99, 99, 1)" stroke-width="1.5"></path><path d="M794.98 187.55L794.98 187.55" stroke="rgba(99, 99, 99, 1)" stroke-width="1.5"></path><path d="M844.09 499.03L844.09 499.03" stroke="rgba(99, 99, 99, 1)" stroke-width="1.5"></path><path d="M844.09 499.03L954.81 525.33" stroke="rgba(99, 99, 99, 1)" stroke-width="1.5"></path><path d="M842.41 708.92L842.41 708.92" stroke="rgba(99, 99, 99, 1)" stroke-width="1.5"></path><path d="M842.41 708.92L828.35 804.08" stroke="rgba(99, 99, 99, 1)" stroke-width="1.5"></path><path d="M842.41 708.92L988.53 812.41" stroke="rgba(99, 99, 99, 1)" stroke-width="1.5"></path><path d="M828.35 804.08L828.35 804.08" stroke="rgba(99, 99, 99, 1)" stroke-width="1.5"></path><path d="M828.35 804.08L988.53 812.41" stroke="rgba(99, 99, 99, 1)" stroke-width="1.5"></path><path d="M828.35 804.08L650.55 706.76" stroke="rgba(99, 99, 99, 1)" stroke-width="1.5"></path><path d="M828.35 804.08L560.78 830.24" stroke="rgba(99, 99, 99, 1)" stroke-width="1.5"></path><path d="M828.35 804.08L1102.45 806.7" stroke="rgba(99, 99, 99, 1)" stroke-width="1.5"></path><path d="M993.3 -56.02L993.3 -56.02" stroke="rgba(99, 99, 99, 1)" stroke-width="1.5"></path><path d="M993.3 -56.02L1120.98 -75.4" stroke="rgba(99, 99, 99, 1)" stroke-width="1.5"></path><path d="M993.3 -56.02L1002.74 74.03" stroke="rgba(99, 99, 99, 1)" stroke-width="1.5"></path><path d="M1002.74 74.03L1002.74 74.03" stroke="rgba(99, 99, 99, 1)" stroke-width="1.5"></path><path d="M1002.74 74.03L1113.88 76.12" stroke="rgba(99, 99, 99, 1)" stroke-width="1.5"></path><path d="M1002.74 74.03L1001.81 262.44" stroke="rgba(99, 99, 99, 1)" stroke-width="1.5"></path><path d="M1002.74 74.03L1120.98 -75.4" stroke="rgba(99, 99, 99, 1)" stroke-width="1.5"></path><path d="M1001.81 262.44L1001.81 262.44" stroke="rgba(99, 99, 99, 1)" stroke-width="1.5"></path><path d="M1001.81 262.44L1143.83 204.57" stroke="rgba(99, 99, 99, 1)" stroke-width="1.5"></path><path d="M1001.81 262.44L1146.74 408.54" stroke="rgba(99, 99, 99, 1)" stroke-width="1.5"></path><path d="M1001.81 262.44L1113.88 76.12" stroke="rgba(99, 99, 99, 1)" stroke-width="1.5"></path><path d="M1001.81 262.44L794.98 187.55" stroke="rgba(99, 99, 99, 1)" stroke-width="1.5"></path><path d="M1001.81 262.44L954.81 525.33" stroke="rgba(99, 99, 99, 1)" stroke-width="1.5"></path><path d="M954.81 525.33L954.81 525.33" stroke="rgba(99, 99, 99, 1)" stroke-width="1.5"></path><path d="M954.81 525.33L1090.17 562.21" stroke="rgba(99, 99, 99, 1)" stroke-width="1.5"></path><path d="M988.53 812.41L988.53 812.41" stroke="rgba(99, 99, 99, 1)" stroke-width="1.5"></path><path d="M988.53 812.41L1102.45 806.7" stroke="rgba(99, 99, 99, 1)" stroke-width="1.5"></path><path d="M988.53 812.41L1132.48 683.29" stroke="rgba(99, 99, 99, 1)" stroke-width="1.5"></path><path d="M988.53 812.41L1090.17 562.21" stroke="rgba(99, 99, 99, 1)" stroke-width="1.5"></path><path d="M988.53 812.41L954.81 525.33" stroke="rgba(99, 99, 99, 1)" stroke-width="1.5"></path><path d="M1120.98 -75.4L1120.98 -75.4" stroke="rgba(99, 99, 99, 1)" stroke-width="1.5"></path><path d="M1120.98 -75.4L1259.5 -37.84" stroke="rgba(99, 99, 99, 1)" stroke-width="1.5"></path><path d="M1120.98 -75.4L1113.88 76.12" stroke="rgba(99, 99, 99, 1)" stroke-width="1.5"></path><path d="M1120.98 -75.4L1253.95 91.13" stroke="rgba(99, 99, 99, 1)" stroke-width="1.5"></path><path d="M1113.88 76.12L1113.88 76.12" stroke="rgba(99, 99, 99, 1)" stroke-width="1.5"></path><path d="M1113.88 76.12L1143.83 204.57" stroke="rgba(99, 99, 99, 1)" stroke-width="1.5"></path><path d="M1113.88 76.12L1253.95 91.13" stroke="rgba(99, 99, 99, 1)" stroke-width="1.5"></path><path d="M1113.88 76.12L993.3 -56.02" stroke="rgba(99, 99, 99, 1)" stroke-width="1.5"></path><path d="M1113.88 76.12L1259.5 -37.84" stroke="rgba(99, 99, 99, 1)" stroke-width="1.5"></path><path d="M1143.83 204.57L1143.83 204.57" stroke="rgba(99, 99, 99, 1)" stroke-width="1.5"></path><path d="M1143.83 204.57L1281.39 226.44" stroke="rgba(99, 99, 99, 1)" stroke-width="1.5"></path><path d="M1143.83 204.57L1253.95 91.13" stroke="rgba(99, 99, 99, 1)" stroke-width="1.5"></path><path d="M1143.83 204.57L1002.74 74.03" stroke="rgba(99, 99, 99, 1)" stroke-width="1.5"></path><path d="M1146.74 408.54L1146.74 408.54" stroke="rgba(99, 99, 99, 1)" stroke-width="1.5"></path><path d="M1146.74 408.54L1258.24 373.12" stroke="rgba(99, 99, 99, 1)" stroke-width="1.5"></path><path d="M1146.74 408.54L1090.17 562.21" stroke="rgba(99, 99, 99, 1)" stroke-width="1.5"></path><path d="M1146.74 408.54L1253.8 537.77" stroke="rgba(99, 99, 99, 1)" stroke-width="1.5"></path><path d="M1146.74 408.54L1143.83 204.57" stroke="rgba(99, 99, 99, 1)" stroke-width="1.5"></path><path d="M1146.74 408.54L954.81 525.33" stroke="rgba(99, 99, 99, 1)" stroke-width="1.5"></path><path d="M1090.17 562.21L1090.17 562.21" stroke="rgba(99, 99, 99, 1)" stroke-width="1.5"></path><path d="M1090.17 562.21L1132.48 683.29" stroke="rgba(99, 99, 99, 1)" stroke-width="1.5"></path><path d="M1090.17 562.21L1253.8 537.77" stroke="rgba(99, 99, 99, 1)" stroke-width="1.5"></path><path d="M1090.17 562.21L1262.27 697.21" stroke="rgba(99, 99, 99, 1)" stroke-width="1.5"></path><path d="M1132.48 683.29L1132.48 683.29" stroke="rgba(99, 99, 99, 1)" stroke-width="1.5"></path><path d="M1132.48 683.29L1102.45 806.7" stroke="rgba(99, 99, 99, 1)" stroke-width="1.5"></path><path d="M1102.45 806.7L1102.45 806.7" stroke="rgba(99, 99, 99, 1)" stroke-width="1.5"></path><path d="M1102.45 806.7L1262.27 697.21" stroke="rgba(99, 99, 99, 1)" stroke-width="1.5"></path><path d="M1102.45 806.7L1300.84 793.09" stroke="rgba(99, 99, 99, 1)" stroke-width="1.5"></path><path d="M1102.45 806.7L1090.17 562.21" stroke="rgba(99, 99, 99, 1)" stroke-width="1.5"></path><path d="M1259.5 -37.84L1259.5 -37.84" stroke="rgba(99, 99, 99, 1)" stroke-width="1.5"></path><path d="M1259.5 -37.84L1253.95 91.13" stroke="rgba(99, 99, 99, 1)" stroke-width="1.5"></path><path d="M1253.95 91.13L1253.95 91.13" stroke="rgba(99, 99, 99, 1)" stroke-width="1.5"></path><path d="M1253.95 91.13L1281.39 226.44" stroke="rgba(99, 99, 99, 1)" stroke-width="1.5"></path><path d="M1253.95 91.13L1427.11 68.82" stroke="rgba(99, 99, 99, 1)" stroke-width="1.5"></path><path d="M1281.39 226.44L1281.39 226.44" stroke="rgba(99, 99, 99, 1)" stroke-width="1.5"></path><path d="M1281.39 226.44L1258.24 373.12" stroke="rgba(99, 99, 99, 1)" stroke-width="1.5"></path><path d="M1258.24 373.12L1258.24 373.12" stroke="rgba(99, 99, 99, 1)" stroke-width="1.5"></path><path d="M1258.24 373.12L1253.8 537.77" stroke="rgba(99, 99, 99, 1)" stroke-width="1.5"></path><path d="M1258.24 373.12L1456.81 371.68" stroke="rgba(99, 99, 99, 1)" stroke-width="1.5"></path><path d="M1253.8 537.77L1253.8 537.77" stroke="rgba(99, 99, 99, 1)" stroke-width="1.5"></path><path d="M1253.8 537.77L1262.27 697.21" stroke="rgba(99, 99, 99, 1)" stroke-width="1.5"></path><path d="M1262.27 697.21L1262.27 697.21" stroke="rgba(99, 99, 99, 1)" stroke-width="1.5"></path><path d="M1262.27 697.21L1300.84 793.09" stroke="rgba(99, 99, 99, 1)" stroke-width="1.5"></path><path d="M1262.27 697.21L1132.48 683.29" stroke="rgba(99, 99, 99, 1)" stroke-width="1.5"></path><path d="M1262.27 697.21L1449.5 646.85" stroke="rgba(99, 99, 99, 1)" stroke-width="1.5"></path><path d="M1300.84 793.09L1300.84 793.09" stroke="rgba(99, 99, 99, 1)" stroke-width="1.5"></path><path d="M1300.84 793.09L1426.58 852.23" stroke="rgba(99, 99, 99, 1)" stroke-width="1.5"></path><path d="M1300.84 793.09L1132.48 683.29" stroke="rgba(99, 99, 99, 1)" stroke-width="1.5"></path><path d="M1423.1 -40.18L1423.1 -40.18" stroke="rgba(99, 99, 99, 1)" stroke-width="1.5"></path><path d="M1423.1 -40.18L1427.11 68.82" stroke="rgba(99, 99, 99, 1)" stroke-width="1.5"></path><path d="M1423.1 -40.18L1259.5 -37.84" stroke="rgba(99, 99, 99, 1)" stroke-width="1.5"></path><path d="M1423.1 -40.18L1253.95 91.13" stroke="rgba(99, 99, 99, 1)" stroke-width="1.5"></path><path d="M1423.1 -40.18L1458.58 249.48" stroke="rgba(99, 99, 99, 1)" stroke-width="1.5"></path><path d="M1423.1 -40.18L1281.39 226.44" stroke="rgba(99, 99, 99, 1)" stroke-width="1.5"></path><path d="M1427.11 68.82L1427.11 68.82" stroke="rgba(99, 99, 99, 1)" stroke-width="1.5"></path><path d="M1427.11 68.82L1458.58 249.48" stroke="rgba(99, 99, 99, 1)" stroke-width="1.5"></path><path d="M1427.11 68.82L1259.5 -37.84" stroke="rgba(99, 99, 99, 1)" stroke-width="1.5"></path><path d="M1458.58 249.48L1458.58 249.48" stroke="rgba(99, 99, 99, 1)" stroke-width="1.5"></path><path d="M1458.58 249.48L1456.81 371.68" stroke="rgba(99, 99, 99, 1)" stroke-width="1.5"></path><path d="M1458.58 249.48L1281.39 226.44" stroke="rgba(99, 99, 99, 1)" stroke-width="1.5"></path><path d="M1458.58 249.48L1258.24 373.12" stroke="rgba(99, 99, 99, 1)" stroke-width="1.5"></path><path d="M1456.81 371.68L1456.81 371.68" stroke="rgba(99, 99, 99, 1)" stroke-width="1.5"></path><path d="M1456.81 371.68L1450.18 510.16" stroke="rgba(99, 99, 99, 1)" stroke-width="1.5"></path><path d="M1456.81 371.68L1281.39 226.44" stroke="rgba(99, 99, 99, 1)" stroke-width="1.5"></path><path d="M1450.18 510.16L1450.18 510.16" stroke="rgba(99, 99, 99, 1)" stroke-width="1.5"></path><path d="M1450.18 510.16L1449.5 646.85" stroke="rgba(99, 99, 99, 1)" stroke-width="1.5"></path><path d="M1450.18 510.16L1253.8 537.77" stroke="rgba(99, 99, 99, 1)" stroke-width="1.5"></path><path d="M1450.18 510.16L1258.24 373.12" stroke="rgba(99, 99, 99, 1)" stroke-width="1.5"></path><path d="M1449.5 646.85L1449.5 646.85" stroke="rgba(99, 99, 99, 1)" stroke-width="1.5"></path><path d="M1426.58 852.23L1426.58 852.23" stroke="rgba(99, 99, 99, 1)" stroke-width="1.5"></path><path d="M1426.58 852.23L1449.5 646.85" stroke="rgba(99, 99, 99, 1)" stroke-width="1.5"></path><path d="M1426.58 852.23L1262.27 697.21" stroke="rgba(99, 99, 99, 1)" stroke-width="1.5"></path><path d="M1426.58 852.23L1102.45 806.7" stroke="rgba(99, 99, 99, 1)" stroke-width="1.5"></path><circle r="5" cx="-68.43" cy="658.44" fill="rgba(99, 99, 99, 1)"></circle><circle r="5" cx="-68.19" cy="803.9" fill="rgba(99, 99, 99, 1)"></circle><circle r="5" cx="48.14" cy="525.04" fill="rgba(99, 99, 99, 1)"></circle><circle r="5" cx="40.74" cy="708" fill="rgba(99, 99, 99, 1)"></circle><circle r="5" cx="77.45" cy="812.46" fill="rgba(99, 99, 99, 1)"></circle><circle r="5" cx="218.63" cy="490" fill="rgba(99, 99, 99, 1)"></circle><circle r="5" cx="191.5" cy="651.79" fill="rgba(99, 99, 99, 1)"></circle><circle r="5" cx="193.65" cy="808.55" fill="rgba(99, 99, 99, 1)"></circle><circle r="5" cx="403.83" cy="365.52" fill="rgba(99, 99, 99, 1)"></circle><circle r="5" cx="363.75" cy="562.17" fill="rgba(99, 99, 99, 1)"></circle><circle r="5" cx="391.1" cy="688.53" fill="rgba(99, 99, 99, 1)"></circle><circle r="5" cx="383.04" cy="862.13" fill="rgba(99, 99, 99, 1)"></circle><circle r="5" cx="488.24" cy="363.35" fill="rgba(99, 99, 99, 1)"></circle><circle r="5" cx="551.35" cy="555.52" fill="rgba(99, 99, 99, 1)"></circle><circle r="5" cx="524.01" cy="638.47" fill="rgba(99, 99, 99, 1)"></circle><circle r="5" cx="560.78" cy="830.24" fill="rgba(99, 99, 99, 1)"></circle><circle r="5" cx="687.36" cy="203.39" fill="rgba(99, 99, 99, 1)"></circle><circle r="5" cx="702.29" cy="390.73" fill="rgba(99, 99, 99, 1)"></circle><circle r="5" cx="655.45" cy="552.18" fill="rgba(99, 99, 99, 1)"></circle><circle r="5" cx="650.55" cy="706.76" fill="rgba(99, 99, 99, 1)"></circle><circle r="5" cx="690.41" cy="838.43" fill="rgba(99, 99, 99, 1)"></circle><circle r="5" cx="819.36" cy="-102.12" fill="rgba(99, 99, 99, 1)"></circle><circle r="5" cx="794.98" cy="187.55" fill="rgba(99, 99, 99, 1)"></circle><circle r="5" cx="844.09" cy="499.03" fill="rgba(99, 99, 99, 1)"></circle><circle r="5" cx="842.41" cy="708.92" fill="rgba(99, 99, 99, 1)"></circle><circle r="5" cx="828.35" cy="804.08" fill="rgba(99, 99, 99, 1)"></circle><circle r="5" cx="993.3" cy="-56.02" fill="rgba(99, 99, 99, 1)"></circle><circle r="5" cx="1002.74" cy="74.03" fill="rgba(99, 99, 99, 1)"></circle><circle r="5" cx="1001.81" cy="262.44" fill="rgba(99, 99, 99, 1)"></circle><circle r="5" cx="954.81" cy="525.33" fill="rgba(99, 99, 99, 1)"></circle><circle r="5" cx="988.53" cy="812.41" fill="rgba(99, 99, 99, 1)"></circle><circle r="5" cx="1120.98" cy="-75.4" fill="rgba(99, 99, 99, 1)"></circle><circle r="5" cx="1113.88" cy="76.12" fill="rgba(99, 99, 99, 1)"></circle><circle r="5" cx="1143.83" cy="204.57" fill="rgba(99, 99, 99, 1)"></circle><circle r="5" cx="1146.74" cy="408.54" fill="rgba(99, 99, 99, 1)"></circle><circle r="5" cx="1090.17" cy="562.21" fill="rgba(99, 99, 99, 1)"></circle><circle r="5" cx="1132.48" cy="683.29" fill="rgba(99, 99, 99, 1)"></circle><circle r="5" cx="1102.45" cy="806.7" fill="rgba(99, 99, 99, 1)"></circle><circle r="5" cx="1259.5" cy="-37.84" fill="rgba(99, 99, 99, 1)"></circle><circle r="5" cx="1253.95" cy="91.13" fill="rgba(99, 99, 99, 1)"></circle><circle r="5" cx="1281.39" cy="226.44" fill="rgba(99, 99, 99, 1)"></circle><circle r="5" cx="1258.24" cy="373.12" fill="rgba(99, 99, 99, 1)"></circle><circle r="5" cx="1253.8" cy="537.77" fill="rgba(99, 99, 99, 1)"></circle><circle r="5" cx="1262.27" cy="697.21" fill="rgba(99, 99, 99, 1)"></circle><circle r="5" cx="1300.84" cy="793.09" fill="rgba(99, 99, 99, 1)"></circle><circle r="5" cx="1423.1" cy="-40.18" fill="rgba(99, 99, 99, 1)"></circle><circle r="5" cx="1427.11" cy="68.82" fill="rgba(99, 99, 99, 1)"></circle><circle r="5" cx="1458.58" cy="249.48" fill="rgba(99, 99, 99, 1)"></circle><circle r="5" cx="1456.81" cy="371.68" fill="rgba(99, 99, 99, 1)"></circle><circle r="5" cx="1450.18" cy="510.16" fill="rgba(99, 99, 99, 1)"></circle><circle r="5" cx="1449.5" cy="646.85" fill="rgba(99, 99, 99, 1)"></circle><circle r="5" cx="1426.58" cy="852.23" fill="rgba(99, 99, 99, 1)"></circle><path d="M-111.9 800.68L-111.9 800.68" stroke="hsl(0, 0%, 54.5%)" stroke-width="1.5"></path><path d="M-111.9 800.68L-74.48 650.07" stroke="hsl(0, 0%, 54.5%)" stroke-width="1.5"></path><path d="M-111.9 800.68L65.48 843.92" stroke="hsl(0, 0%, 54.5%)" stroke-width="1.5"></path><path d="M-111.9 800.68L-78.71 554" stroke="hsl(0, 0%, 54.5%)" stroke-width="1.5"></path><path d="M-111.9 800.68L107.1 676.58" stroke="hsl(0, 0%, 54.5%)" stroke-width="1.5"></path><path d="M-111.9 800.68L44.27 554.35" stroke="hsl(0, 0%, 54.5%)" stroke-width="1.5"></path><path d="M-111.9 800.68L211.86 820.59" stroke="hsl(0, 0%, 54.5%)" stroke-width="1.5"></path><path d="M401.31 662.51L401.31 662.51" stroke="hsl(0, 0%, 54.5%)" stroke-width="1.5"></path><path d="M401.31 662.51L366.1 518.49" stroke="hsl(0, 0%, 54.5%)" stroke-width="1.5"></path><path d="M401.31 662.51L549.01 701.34" stroke="hsl(0, 0%, 54.5%)" stroke-width="1.5"></path><path d="M401.31 662.51L406.87 824.87" stroke="hsl(0, 0%, 54.5%)" stroke-width="1.5"></path><path d="M401.31 662.51L500.14 793.34" stroke="hsl(0, 0%, 54.5%)" stroke-width="1.5"></path><path d="M401.31 662.51L504.07 532.99" stroke="hsl(0, 0%, 54.5%)" stroke-width="1.5"></path><path d="M656.11 527.07L656.11 527.07" stroke="hsl(0, 0%, 54.5%)" stroke-width="1.5"></path><path d="M656.11 527.07L504.07 532.99" stroke="hsl(0, 0%, 54.5%)" stroke-width="1.5"></path><path d="M656.11 527.07L676.24 710.53" stroke="hsl(0, 0%, 54.5%)" stroke-width="1.5"></path><path d="M656.11 527.07L844.3 542.94" stroke="hsl(0, 0%, 54.5%)" stroke-width="1.5"></path><path d="M656.11 527.07L549.01 701.34" stroke="hsl(0, 0%, 54.5%)" stroke-width="1.5"></path><path d="M647.59 838.07L647.59 838.07" stroke="hsl(0, 0%, 54.5%)" stroke-width="1.5"></path><path d="M647.59 838.07L676.24 710.53" stroke="hsl(0, 0%, 54.5%)" stroke-width="1.5"></path><path d="M647.59 838.07L500.14 793.34" stroke="hsl(0, 0%, 54.5%)" stroke-width="1.5"></path><path d="M647.59 838.07L801.6 812.86" stroke="hsl(0, 0%, 54.5%)" stroke-width="1.5"></path><path d="M647.59 838.07L549.01 701.34" stroke="hsl(0, 0%, 54.5%)" stroke-width="1.5"></path><path d="M810.93 345.25L810.93 345.25" stroke="hsl(0, 0%, 54.5%)" stroke-width="1.5"></path><path d="M810.93 345.25L987.76 253.17" stroke="hsl(0, 0%, 54.5%)" stroke-width="1.5"></path><path d="M810.93 345.25L844.3 542.94" stroke="hsl(0, 0%, 54.5%)" stroke-width="1.5"></path><path d="M810.93 345.25L656.11 527.07" stroke="hsl(0, 0%, 54.5%)" stroke-width="1.5"></path><path d="M810.93 345.25L944.51 557.91" stroke="hsl(0, 0%, 54.5%)" stroke-width="1.5"></path><path d="M810.93 345.25L1087.53 399.02" stroke="hsl(0, 0%, 54.5%)" stroke-width="1.5"></path><path d="M810.93 345.25L800.39 676.38" stroke="hsl(0, 0%, 54.5%)" stroke-width="1.5"></path><path d="M944.51 557.91L944.51 557.91" stroke="hsl(0, 0%, 54.5%)" stroke-width="1.5"></path><path d="M944.51 557.91L844.3 542.94" stroke="hsl(0, 0%, 54.5%)" stroke-width="1.5"></path><path d="M944.51 557.91L1008.53 687.49" stroke="hsl(0, 0%, 54.5%)" stroke-width="1.5"></path><path d="M944.51 557.91L800.39 676.38" stroke="hsl(0, 0%, 54.5%)" stroke-width="1.5"></path><path d="M944.51 557.91L1087.53 399.02" stroke="hsl(0, 0%, 54.5%)" stroke-width="1.5"></path><path d="M1294.57 96.55L1294.57 96.55" stroke="hsl(0, 0%, 54.5%)" stroke-width="1.5"></path><path d="M1294.57 96.55L1286.18 191.06" stroke="hsl(0, 0%, 54.5%)" stroke-width="1.5"></path><path d="M1294.57 96.55L1290.73 -43.97" stroke="hsl(0, 0%, 54.5%)" stroke-width="1.5"></path><path d="M1294.57 96.55L1437.29 108.33" stroke="hsl(0, 0%, 54.5%)" stroke-width="1.5"></path><path d="M1294.57 96.55L1101.21 86.01" stroke="hsl(0, 0%, 54.5%)" stroke-width="1.5"></path><path d="M1411.12 411.7L1411.12 411.7" stroke="hsl(0, 0%, 54.5%)" stroke-width="1.5"></path><path d="M1411.12 411.7L1402.12 550.89" stroke="hsl(0, 0%, 54.5%)" stroke-width="1.5"></path><path d="M1411.12 411.7L1252.29 353.05" stroke="hsl(0, 0%, 54.5%)" stroke-width="1.5"></path><path d="M1411.12 411.7L1439.84 244.04" stroke="hsl(0, 0%, 54.5%)" stroke-width="1.5"></path><path d="M1402.12 550.89L1402.12 550.89" stroke="hsl(0, 0%, 54.5%)" stroke-width="1.5"></path><path d="M1402.12 550.89L1418.23 683.19" stroke="hsl(0, 0%, 54.5%)" stroke-width="1.5"></path><path d="M1402.12 550.89L1274.03 653.44" stroke="hsl(0, 0%, 54.5%)" stroke-width="1.5"></path><path d="M1402.12 550.89L1252.29 353.05" stroke="hsl(0, 0%, 54.5%)" stroke-width="1.5"></path><path d="M1402.12 550.89L1418.89 834.24" stroke="hsl(0, 0%, 54.5%)" stroke-width="1.5"></path><path d="M1402.12 550.89L1265.13 802.43" stroke="hsl(0, 0%, 54.5%)" stroke-width="1.5"></path><path d="M-78.71 554L-78.71 554" stroke="hsl(0, 0%, 54.5%)" stroke-width="1.5"></path><path d="M-78.71 554L-74.48 650.07" stroke="hsl(0, 0%, 54.5%)" stroke-width="1.5"></path><path d="M-78.71 554L44.27 554.35" stroke="hsl(0, 0%, 54.5%)" stroke-width="1.5"></path><path d="M-78.71 554L107.1 676.58" stroke="hsl(0, 0%, 54.5%)" stroke-width="1.5"></path><path d="M-74.48 650.07L-74.48 650.07" stroke="hsl(0, 0%, 54.5%)" stroke-width="1.5"></path><path d="M-74.48 650.07L44.27 554.35" stroke="hsl(0, 0%, 54.5%)" stroke-width="1.5"></path><path d="M44.27 554.35L44.27 554.35" stroke="hsl(0, 0%, 54.5%)" stroke-width="1.5"></path><path d="M44.27 554.35L107.1 676.58" stroke="hsl(0, 0%, 54.5%)" stroke-width="1.5"></path><path d="M44.27 554.35L210.45 543.99" stroke="hsl(0, 0%, 54.5%)" stroke-width="1.5"></path><path d="M107.1 676.58L107.1 676.58" stroke="hsl(0, 0%, 54.5%)" stroke-width="1.5"></path><path d="M107.1 676.58L210.45 543.99" stroke="hsl(0, 0%, 54.5%)" stroke-width="1.5"></path><path d="M107.1 676.58L65.48 843.92" stroke="hsl(0, 0%, 54.5%)" stroke-width="1.5"></path><path d="M107.1 676.58L211.86 820.59" stroke="hsl(0, 0%, 54.5%)" stroke-width="1.5"></path><path d="M107.1 676.58L-74.48 650.07" stroke="hsl(0, 0%, 54.5%)" stroke-width="1.5"></path><path d="M65.48 843.92L65.48 843.92" stroke="hsl(0, 0%, 54.5%)" stroke-width="1.5"></path><path d="M65.48 843.92L211.86 820.59" stroke="hsl(0, 0%, 54.5%)" stroke-width="1.5"></path><path d="M65.48 843.92L-74.48 650.07" stroke="hsl(0, 0%, 54.5%)" stroke-width="1.5"></path><path d="M65.48 843.92L44.27 554.35" stroke="hsl(0, 0%, 54.5%)" stroke-width="1.5"></path><path d="M210.45 543.99L210.45 543.99" stroke="hsl(0, 0%, 54.5%)" stroke-width="1.5"></path><path d="M210.45 543.99L366.1 518.49" stroke="hsl(0, 0%, 54.5%)" stroke-width="1.5"></path><path d="M211.86 820.59L211.86 820.59" stroke="hsl(0, 0%, 54.5%)" stroke-width="1.5"></path><path d="M366.1 518.49L366.1 518.49" stroke="hsl(0, 0%, 54.5%)" stroke-width="1.5"></path><path d="M366.1 518.49L504.07 532.99" stroke="hsl(0, 0%, 54.5%)" stroke-width="1.5"></path><path d="M406.87 824.87L406.87 824.87" stroke="hsl(0, 0%, 54.5%)" stroke-width="1.5"></path><path d="M406.87 824.87L500.14 793.34" stroke="hsl(0, 0%, 54.5%)" stroke-width="1.5"></path><path d="M406.87 824.87L549.01 701.34" stroke="hsl(0, 0%, 54.5%)" stroke-width="1.5"></path><path d="M504.07 532.99L504.07 532.99" stroke="hsl(0, 0%, 54.5%)" stroke-width="1.5"></path><path d="M504.07 532.99L549.01 701.34" stroke="hsl(0, 0%, 54.5%)" stroke-width="1.5"></path><path d="M504.07 532.99L676.24 710.53" stroke="hsl(0, 0%, 54.5%)" stroke-width="1.5"></path><path d="M549.01 701.34L549.01 701.34" stroke="hsl(0, 0%, 54.5%)" stroke-width="1.5"></path><path d="M549.01 701.34L500.14 793.34" stroke="hsl(0, 0%, 54.5%)" stroke-width="1.5"></path><path d="M549.01 701.34L676.24 710.53" stroke="hsl(0, 0%, 54.5%)" stroke-width="1.5"></path><path d="M500.14 793.34L500.14 793.34" stroke="hsl(0, 0%, 54.5%)" stroke-width="1.5"></path><path d="M676.24 710.53L676.24 710.53" stroke="hsl(0, 0%, 54.5%)" stroke-width="1.5"></path><path d="M844.3 542.94L844.3 542.94" stroke="hsl(0, 0%, 54.5%)" stroke-width="1.5"></path><path d="M844.3 542.94L800.39 676.38" stroke="hsl(0, 0%, 54.5%)" stroke-width="1.5"></path><path d="M800.39 676.38L800.39 676.38" stroke="hsl(0, 0%, 54.5%)" stroke-width="1.5"></path><path d="M800.39 676.38L676.24 710.53" stroke="hsl(0, 0%, 54.5%)" stroke-width="1.5"></path><path d="M800.39 676.38L801.6 812.86" stroke="hsl(0, 0%, 54.5%)" stroke-width="1.5"></path><path d="M800.39 676.38L950.06 803.16" stroke="hsl(0, 0%, 54.5%)" stroke-width="1.5"></path><path d="M800.39 676.38L656.11 527.07" stroke="hsl(0, 0%, 54.5%)" stroke-width="1.5"></path><path d="M801.6 812.86L801.6 812.86" stroke="hsl(0, 0%, 54.5%)" stroke-width="1.5"></path><path d="M1010.11 -99.57L1010.11 -99.57" stroke="hsl(0, 0%, 54.5%)" stroke-width="1.5"></path><path d="M1010.11 -99.57L1122.87 -66.38" stroke="hsl(0, 0%, 54.5%)" stroke-width="1.5"></path><path d="M1010.11 -99.57L1101.21 86.01" stroke="hsl(0, 0%, 54.5%)" stroke-width="1.5"></path><path d="M1010.11 -99.57L1290.73 -43.97" stroke="hsl(0, 0%, 54.5%)" stroke-width="1.5"></path><path d="M987.76 253.17L987.76 253.17" stroke="hsl(0, 0%, 54.5%)" stroke-width="1.5"></path><path d="M987.76 253.17L1133.64 207.05" stroke="hsl(0, 0%, 54.5%)" stroke-width="1.5"></path><path d="M987.76 253.17L1087.53 399.02" stroke="hsl(0, 0%, 54.5%)" stroke-width="1.5"></path><path d="M987.76 253.17L1101.21 86.01" stroke="hsl(0, 0%, 54.5%)" stroke-width="1.5"></path><path d="M987.76 253.17L1252.29 353.05" stroke="hsl(0, 0%, 54.5%)" stroke-width="1.5"></path><path d="M987.76 253.17L1286.18 191.06" stroke="hsl(0, 0%, 54.5%)" stroke-width="1.5"></path><path d="M1008.53 687.49L1008.53 687.49" stroke="hsl(0, 0%, 54.5%)" stroke-width="1.5"></path><path d="M1008.53 687.49L1130.12 690.95" stroke="hsl(0, 0%, 54.5%)" stroke-width="1.5"></path><path d="M1008.53 687.49L950.06 803.16" stroke="hsl(0, 0%, 54.5%)" stroke-width="1.5"></path><path d="M1008.53 687.49L1106.41 840.43" stroke="hsl(0, 0%, 54.5%)" stroke-width="1.5"></path><path d="M1008.53 687.49L800.39 676.38" stroke="hsl(0, 0%, 54.5%)" stroke-width="1.5"></path><path d="M950.06 803.16L950.06 803.16" stroke="hsl(0, 0%, 54.5%)" stroke-width="1.5"></path><path d="M950.06 803.16L801.6 812.86" stroke="hsl(0, 0%, 54.5%)" stroke-width="1.5"></path><path d="M950.06 803.16L1106.41 840.43" stroke="hsl(0, 0%, 54.5%)" stroke-width="1.5"></path><path d="M1122.87 -66.38L1122.87 -66.38" stroke="hsl(0, 0%, 54.5%)" stroke-width="1.5"></path><path d="M1122.87 -66.38L1101.21 86.01" stroke="hsl(0, 0%, 54.5%)" stroke-width="1.5"></path><path d="M1122.87 -66.38L1290.73 -43.97" stroke="hsl(0, 0%, 54.5%)" stroke-width="1.5"></path><path d="M1122.87 -66.38L1294.57 96.55" stroke="hsl(0, 0%, 54.5%)" stroke-width="1.5"></path><path d="M1101.21 86.01L1101.21 86.01" stroke="hsl(0, 0%, 54.5%)" stroke-width="1.5"></path><path d="M1101.21 86.01L1133.64 207.05" stroke="hsl(0, 0%, 54.5%)" stroke-width="1.5"></path><path d="M1133.64 207.05L1133.64 207.05" stroke="hsl(0, 0%, 54.5%)" stroke-width="1.5"></path><path d="M1133.64 207.05L1286.18 191.06" stroke="hsl(0, 0%, 54.5%)" stroke-width="1.5"></path><path d="M1087.53 399.02L1087.53 399.02" stroke="hsl(0, 0%, 54.5%)" stroke-width="1.5"></path><path d="M1087.53 399.02L1252.29 353.05" stroke="hsl(0, 0%, 54.5%)" stroke-width="1.5"></path><path d="M1087.53 399.02L1133.64 207.05" stroke="hsl(0, 0%, 54.5%)" stroke-width="1.5"></path><path d="M1130.12 690.95L1130.12 690.95" stroke="hsl(0, 0%, 54.5%)" stroke-width="1.5"></path><path d="M1130.12 690.95L1274.03 653.44" stroke="hsl(0, 0%, 54.5%)" stroke-width="1.5"></path><path d="M1130.12 690.95L1106.41 840.43" stroke="hsl(0, 0%, 54.5%)" stroke-width="1.5"></path><path d="M1130.12 690.95L1265.13 802.43" stroke="hsl(0, 0%, 54.5%)" stroke-width="1.5"></path><path d="M1130.12 690.95L950.06 803.16" stroke="hsl(0, 0%, 54.5%)" stroke-width="1.5"></path><path d="M1130.12 690.95L944.51 557.91" stroke="hsl(0, 0%, 54.5%)" stroke-width="1.5"></path><path d="M1106.41 840.43L1106.41 840.43" stroke="hsl(0, 0%, 54.5%)" stroke-width="1.5"></path><path d="M1106.41 840.43L1265.13 802.43" stroke="hsl(0, 0%, 54.5%)" stroke-width="1.5"></path><path d="M1106.41 840.43L1274.03 653.44" stroke="hsl(0, 0%, 54.5%)" stroke-width="1.5"></path><path d="M1290.73 -43.97L1290.73 -43.97" stroke="hsl(0, 0%, 54.5%)" stroke-width="1.5"></path><path d="M1290.73 -43.97L1445.58 -70.7" stroke="hsl(0, 0%, 54.5%)" stroke-width="1.5"></path><path d="M1286.18 191.06L1286.18 191.06" stroke="hsl(0, 0%, 54.5%)" stroke-width="1.5"></path><path d="M1252.29 353.05L1252.29 353.05" stroke="hsl(0, 0%, 54.5%)" stroke-width="1.5"></path><path d="M1252.29 353.05L1286.18 191.06" stroke="hsl(0, 0%, 54.5%)" stroke-width="1.5"></path><path d="M1252.29 353.05L1133.64 207.05" stroke="hsl(0, 0%, 54.5%)" stroke-width="1.5"></path><path d="M1252.29 353.05L1439.84 244.04" stroke="hsl(0, 0%, 54.5%)" stroke-width="1.5"></path><path d="M1274.03 653.44L1274.03 653.44" stroke="hsl(0, 0%, 54.5%)" stroke-width="1.5"></path><path d="M1274.03 653.44L1418.23 683.19" stroke="hsl(0, 0%, 54.5%)" stroke-width="1.5"></path><path d="M1274.03 653.44L1265.13 802.43" stroke="hsl(0, 0%, 54.5%)" stroke-width="1.5"></path><path d="M1265.13 802.43L1265.13 802.43" stroke="hsl(0, 0%, 54.5%)" stroke-width="1.5"></path><path d="M1265.13 802.43L1418.89 834.24" stroke="hsl(0, 0%, 54.5%)" stroke-width="1.5"></path><path d="M1445.58 -70.7L1445.58 -70.7" stroke="hsl(0, 0%, 54.5%)" stroke-width="1.5"></path><path d="M1445.58 -70.7L1437.29 108.33" stroke="hsl(0, 0%, 54.5%)" stroke-width="1.5"></path><path d="M1445.58 -70.7L1294.57 96.55" stroke="hsl(0, 0%, 54.5%)" stroke-width="1.5"></path><path d="M1445.58 -70.7L1286.18 191.06" stroke="hsl(0, 0%, 54.5%)" stroke-width="1.5"></path><path d="M1445.58 -70.7L1439.84 244.04" stroke="hsl(0, 0%, 54.5%)" stroke-width="1.5"></path><path d="M1445.58 -70.7L1122.87 -66.38" stroke="hsl(0, 0%, 54.5%)" stroke-width="1.5"></path><path d="M1437.29 108.33L1437.29 108.33" stroke="hsl(0, 0%, 54.5%)" stroke-width="1.5"></path><path d="M1437.29 108.33L1439.84 244.04" stroke="hsl(0, 0%, 54.5%)" stroke-width="1.5"></path><path d="M1437.29 108.33L1286.18 191.06" stroke="hsl(0, 0%, 54.5%)" stroke-width="1.5"></path><path d="M1439.84 244.04L1439.84 244.04" stroke="hsl(0, 0%, 54.5%)" stroke-width="1.5"></path><path d="M1439.84 244.04L1286.18 191.06" stroke="hsl(0, 0%, 54.5%)" stroke-width="1.5"></path><path d="M1418.23 683.19L1418.23 683.19" stroke="hsl(0, 0%, 54.5%)" stroke-width="1.5"></path><path d="M1418.23 683.19L1418.89 834.24" stroke="hsl(0, 0%, 54.5%)" stroke-width="1.5"></path><path d="M1418.23 683.19L1265.13 802.43" stroke="hsl(0, 0%, 54.5%)" stroke-width="1.5"></path><path d="M1418.23 683.19L1411.12 411.7" stroke="hsl(0, 0%, 54.5%)" stroke-width="1.5"></path><path d="M1418.23 683.19L1130.12 690.95" stroke="hsl(0, 0%, 54.5%)" stroke-width="1.5"></path><path d="M1418.89 834.24L1418.89 834.24" stroke="hsl(0, 0%, 54.5%)" stroke-width="1.5"></path><path d="M1418.89 834.24L1274.03 653.44" stroke="hsl(0, 0%, 54.5%)" stroke-width="1.5"></path><path d="M1418.89 834.24L1106.41 840.43" stroke="hsl(0, 0%, 54.5%)" stroke-width="1.5"></path><path d="M1418.89 834.24L1130.12 690.95" stroke="hsl(0, 0%, 54.5%)" stroke-width="1.5"></path><circle r="25" cx="-111.9" cy="800.68" fill="url(&quot;#SvgjsRadialGradient1346&quot;)"></circle><circle r="25" cx="401.31" cy="662.51" fill="url(&quot;#SvgjsRadialGradient1346&quot;)"></circle><circle r="25" cx="656.11" cy="527.07" fill="url(&quot;#SvgjsRadialGradient1346&quot;)"></circle><circle r="25" cx="647.59" cy="838.07" fill="url(&quot;#SvgjsRadialGradient1346&quot;)"></circle><circle r="25" cx="810.93" cy="345.25" fill="url(&quot;#SvgjsRadialGradient1346&quot;)"></circle><circle r="25" cx="944.51" cy="557.91" fill="url(&quot;#SvgjsRadialGradient1346&quot;)"></circle><circle r="25" cx="1294.57" cy="96.55" fill="url(&quot;#SvgjsRadialGradient1346&quot;)"></circle><circle r="25" cx="1411.12" cy="411.7" fill="url(&quot;#SvgjsRadialGradient1346&quot;)"></circle><circle r="25" cx="1402.12" cy="550.89" fill="url(&quot;#SvgjsRadialGradient1346&quot;)"></circle><circle r="5" cx="-78.71" cy="554" fill="#b5b5b5"></circle><circle r="5" cx="-74.48" cy="650.07" fill="#b5b5b5"></circle><circle r="5" cx="44.27" cy="554.35" fill="#b5b5b5"></circle><circle r="5" cx="107.1" cy="676.58" fill="#b5b5b5"></circle><circle r="5" cx="65.48" cy="843.92" fill="#b5b5b5"></circle><circle r="5" cx="210.45" cy="543.99" fill="#b5b5b5"></circle><circle r="5" cx="211.86" cy="820.59" fill="#b5b5b5"></circle><circle r="5" cx="366.1" cy="518.49" fill="#b5b5b5"></circle><circle r="5" cx="406.87" cy="824.87" fill="#b5b5b5"></circle><circle r="5" cx="504.07" cy="532.99" fill="#b5b5b5"></circle><circle r="5" cx="549.01" cy="701.34" fill="#b5b5b5"></circle><circle r="5" cx="500.14" cy="793.34" fill="#b5b5b5"></circle><circle r="5" cx="676.24" cy="710.53" fill="#b5b5b5"></circle><circle r="5" cx="844.3" cy="542.94" fill="#b5b5b5"></circle><circle r="5" cx="800.39" cy="676.38" fill="#b5b5b5"></circle><circle r="5" cx="801.6" cy="812.86" fill="#b5b5b5"></circle><circle r="5" cx="1010.11" cy="-99.57" fill="#b5b5b5"></circle><circle r="5" cx="987.76" cy="253.17" fill="#b5b5b5"></circle><circle r="5" cx="1008.53" cy="687.49" fill="#b5b5b5"></circle><circle r="5" cx="950.06" cy="803.16" fill="#b5b5b5"></circle><circle r="5" cx="1122.87" cy="-66.38" fill="#b5b5b5"></circle><circle r="5" cx="1101.21" cy="86.01" fill="#b5b5b5"></circle><circle r="5" cx="1133.64" cy="207.05" fill="#b5b5b5"></circle><circle r="5" cx="1087.53" cy="399.02" fill="#b5b5b5"></circle><circle r="5" cx="1130.12" cy="690.95" fill="#b5b5b5"></circle><circle r="5" cx="1106.41" cy="840.43" fill="#b5b5b5"></circle><circle r="5" cx="1290.73" cy="-43.97" fill="#b5b5b5"></circle><circle r="5" cx="1286.18" cy="191.06" fill="#b5b5b5"></circle><circle r="5" cx="1252.29" cy="353.05" fill="#b5b5b5"></circle><circle r="5" cx="1274.03" cy="653.44" fill="#b5b5b5"></circle><circle r="5" cx="1265.13" cy="802.43" fill="#b5b5b5"></circle><circle r="5" cx="1445.58" cy="-70.7" fill="#b5b5b5"></circle><circle r="5" cx="1437.29" cy="108.33" fill="#b5b5b5"></circle><circle r="5" cx="1439.84" cy="244.04" fill="#b5b5b5"></circle><circle r="5" cx="1418.23" cy="683.19" fill="#b5b5b5"></circle><circle r="5" cx="1418.89" cy="834.24" fill="#b5b5b5"></circle></g><defs><mask id="SvgjsMask1345"><rect width="1262.4" height="656" fill="#ffffff"></rect></mask><radialGradient id="SvgjsRadialGradient1346"><stop stop-color="#ffffff" offset="0.1"></stop><stop stop-color="rgba(107, 107, 107, 1)" offset="0.2"></stop><stop stop-color="rgba(107, 107, 107, 0)" offset="1"></stop></radialGradient></defs></svg>