<svg xmlns="http://www.w3.org/2000/svg" version="1.1" xmlns:xlink="http://www.w3.org/1999/xlink" xmlns:svgjs="http://svgjs.dev/svgjs" width="1600" height="900" preserveAspectRatio="none" viewBox="0 0 1600 900">
    <g mask="url(&quot;#SvgjsMask1111&quot;)" fill="none">
        <rect width="1600" height="900" x="0" y="0" fill="rgba(226, 226, 226, 1)"></rect>
        <path d="M0,357.509C84.231,352.737,176.902,431.253,246.586,383.695C316.728,335.825,271.802,217.112,313.833,143.323C362.61,57.693,499.176,25.421,506.638,-72.844C513.806,-167.248,423.135,-244.124,347.586,-301.185C280.078,-352.172,192.536,-356.791,109.469,-372.818C34.38,-387.305,-38.931,-401.292,-114.62,-390.36C-199.814,-378.055,-304.994,-377.353,-353.145,-306.002C-401.98,-233.639,-331.814,-135.905,-344.618,-49.549C-357.513,37.415,-442.345,108.57,-427.462,195.216C-411.835,286.195,-351.519,379.924,-265.219,412.689C-179.054,445.403,-92.018,362.722,0,357.509" fill="#d2d2d2"></path>
        <path d="M1600 1559.962C1721.132 1567.937 1814.03 1452.967 1900.83 1368.101 1974.585 1295.989 2007.826 1199.045 2060.094 1110.118 2119.544 1008.971 2226.057 926.829 2229.127 809.545 2232.302 688.23 2155.968 578.828 2076.397 487.199 1996.884 395.637 1895.634 323.558 1778.818 291 1662.931 258.701 1541.262 272.962 1425.525 305.794 1308.971 338.85799999999995 1188.157 383.134 1114.622 479.418 1042.6219999999998 573.692 1051.9099999999999 701.359 1033.876 818.604 1015.644 937.141 949.266 1065.8319999999999 1008.374 1170.186 1067.642 1274.8229999999999 1223.173 1263.937 1323.594 1330.097 1425.73 1397.387 1477.954 1551.9270000000001 1600 1559.962" fill="#f2f2f2"></path>
    </g>
    <defs>
        <mask id="SvgjsMask1111">
            <rect width="1600" height="900" fill="#ffffff"></rect>
        </mask>
    </defs>
</svg>