<svg xmlns="http://www.w3.org/2000/svg" version="1.1" xmlns:xlink="http://www.w3.org/1999/xlink" xmlns:svgjs="http://svgjs.dev/svgjs" width="1575.2" height="1000" preserveAspectRatio="none" viewBox="0 0 1575.2 1000">
    <g mask="url(&quot;#SvgjsMask1057&quot;)" fill="none">
        <rect width="1575.2" height="1000" x="0" y="0" fill="rgba(242, 242, 242, 1)"></rect>
        <path d="M0,421.747C82.687,427.713,171.64,420.083,238.275,370.763C303.594,322.417,316.477,233.829,352.384,160.928C389.579,85.412,459.948,18.762,452.968,-65.127C445.925,-149.774,371.273,-209.324,316.198,-273.987C260.644,-339.212,214.881,-429.978,130.345,-443.915C45.693,-457.871,-21.864,-376.724,-100.628,-342.708C-167.785,-313.705,-247.343,-310.936,-298.544,-258.69C-351.013,-205.149,-361.637,-126.987,-382.573,-55.006C-406.942,28.781,-464.895,116.426,-431.037,196.848C-397.214,277.186,-294.436,297.58,-217.156,337.902C-146.941,374.538,-78.993,416.047,0,421.747" fill="#d3d3d3"></path>
        <path d="M1575.2 1416.891C1654.415 1415.307 1728.241 1384.58 1796.484 1344.325 1866.891 1302.7939999999999 1938.0030000000002 1255.53 1973.545 1181.9180000000001 2009.414 1107.63 1995.843 1022.511 1991.6460000000002 940.124 1987.031 849.525 2001.7910000000002 750.0360000000001 1947.8310000000001 677.113 1892.951 602.946 1795.9180000000001 575.29 1706.094 554.217 1619.863 533.9870000000001 1528.844 528.51 1445.809 559.336 1365.678 589.0830000000001 1307.259 654.848 1254.301 721.9390000000001 1203.3410000000001 786.499 1146.1370000000002 856.13 1146.612 938.378 1147.073 1018.167 1221.883 1073.663 1256.7450000000001 1145.434 1290.499 1214.924 1289.361 1303.174 1348.154 1353.29 1409.204 1405.33 1494.996 1418.495 1575.2 1416.891" fill="#ffffff"></path>
    </g>
    <defs>
        <mask id="SvgjsMask1057">
            <rect width="1575.2" height="1000" fill="#ffffff"></rect>
        </mask>
    </defs>
</svg>